<svg xmlns="http://www.w3.org/2000/svg" viewBox="0 0 537.4 480.18"><defs><linearGradient id="linear-gradient" x1="114.2" y1="230.57" x2="437.73" y2="230.57" gradientUnits="userSpaceOnUse"><stop offset="0" stop-color="#0f2333"/><stop offset="1" stop-color="#0a0e11"/></linearGradient><clipPath id="clip-path"><path fill="none" d="M397.76 406.56l-49.38-13.2 58.49-240.51 49.38 13.2-58.49 240.51z"/></clipPath><style>.cls-3{fill:#221f1f}.cls-4,.cls-5{fill:#88bd43}.cls-4{opacity:.11}.cls-9{fill:#0e2232}.cls-13{fill:#fff}</style></defs><g style="isolation:isolate"><g id="Layer_1" data-name="Layer 1"><path class="cls-3" d="M128.41 174.25c5.28-1.9 11.31 1.36 13.43 7.26l63.29 176.08c2.12 5.9-.45 12.25-5.73 14.15l-79.84 28.69c-5.28 1.9-11.3-1.36-13.43-7.26L42.84 217.09c-2.12-5.9.45-12.25 5.74-14.15z"/><path class="cls-4" d="M110.38 365.31a13.28 13.28 0 1117 8 13.28 13.28 0 01-17-8z"/><path class="cls-5" d="M112.83 364.43a10.67 10.67 0 1113.66 6.44 10.67 10.67 0 01-13.66-6.44z"/><path class="cls-4" d="M94.77 323.41a13.28 13.28 0 1117 8 13.27 13.27 0 01-17-8z"/><path class="cls-5" d="M97.22 322.53a10.67 10.67 0 1113.66 6.47 10.67 10.67 0 01-13.66-6.47z"/><path class="cls-4" d="M78.93 280.9a13.28 13.28 0 1117 8 13.28 13.28 0 01-17-8z"/><path class="cls-5" d="M81.38 280A10.68 10.68 0 1195 286.46 10.67 10.67 0 0181.38 280z"/><path class="cls-4" d="M62.78 237.56a13.28 13.28 0 1117 8 13.29 13.29 0 01-17-8z"/><path class="cls-5" d="M65.23 236.68a10.68 10.68 0 1113.66 6.44 10.67 10.67 0 01-13.66-6.44z"/><path class="cls-4" d="M157.93 348.76a13.28 13.28 0 1117 8 13.29 13.29 0 01-17-8z"/><path class="cls-5" d="M160.38 347.88a10.68 10.68 0 1113.62 6.43 10.67 10.67 0 01-13.62-6.43z"/><path class="cls-4" d="M142.32 306.86a13.28 13.28 0 1117 8 13.28 13.28 0 01-17-8z"/><path class="cls-5" d="M144.77 306a10.68 10.68 0 1113.66 6.44 10.67 10.67 0 01-13.66-6.44z"/><path class="cls-4" d="M126.48 264.34a13.28 13.28 0 1117 8 13.27 13.27 0 01-17-8z"/><path class="cls-5" d="M128.93 263.46a10.67 10.67 0 1113.66 6.44 10.68 10.68 0 01-13.66-6.44z"/><path class="cls-4" d="M110.33 221a13.28 13.28 0 1117 8 13.28 13.28 0 01-17-8z"/><path class="cls-5" d="M112.78 220.12a10.67 10.67 0 1113.66 6.44 10.68 10.68 0 01-13.66-6.44z"/><path d="M175 356.48a13 13 0 01-9-24.32m-6.61-17.65a13 13 0 01-9.06-24.32M143.55 272a13 13 0 01-9.06-24.32m-54.68-2.45a13 13 0 11-9.07-24.32m25.2 67.62a13 13 0 01-9.06-24.32m24.92 66.87a13 13 0 11-9.07-24.32M127.41 373a13 13 0 01-9.06-24.32m9.04-120.06a13 13 0 01-9.06-24.32" opacity=".18" fill="#88bd43"/><path class="cls-5" d="M383.06 279.21l89.12 22.72 14.3-56.12c4.55-17.83-6.28-32.82-10.29-39-8.1-12.58-32.61-22.49-51.22-12.53-6.65 3.56-23.39 12.3-28 30.53z"/><path class="cls-3" d="M472.09 301L383 278.3l-14.31 56.12c-4.54 17.83 6.29 32.81 10.3 39 8.1 12.57 32.61 22.48 51.22 12.52 6.65-3.55 23.39-12.3 28-30.53z"/><g clip-path="url(#clip-path)" opacity=".15"><path class="cls-9" d="M380.5 282.43l89.11 23.82 14.31-58.83c4.55-18.69-6.29-34.4-10.29-40.92-8.11-13.18-32.61-23.57-51.23-13.13-6.65 3.73-23.38 12.9-28 32z"/><path class="cls-9" d="M471.58 298.15l-89.11-23.82-14.31 58.83c-4.55 18.69 6.28 34.4 10.29 40.91 8.11 13.18 32.61 23.57 51.23 13.14 6.64-3.73 23.38-12.9 28-32z"/></g><path d="M414.53 106.29c-69.67-5.49-108.4-38.39-126.24-59.2a16.26 16.26 0 00-24.66 0c-18.38 21.46-59 55.76-132.83 59.63a16.34 16.34 0 00-15.48 15c-4.12 51.1-5.27 222.66 153.79 296.52a16.32 16.32 0 0013.7 0c151.9-70.53 157.7-230.16 154.32-288.9a24.53 24.53 0 00-22.6-23.05z" fill="url(#linear-gradient)"/><path d="M392.53 134.86c-48.64-7.45-82.89-27-105.75-46.14a16.87 16.87 0 00-21.63 0c-24.29 20.29-61.44 41.14-115 47.39a5.49 5.49 0 00-4.86 5.31 346.82 346.82 0 008.38 86C170.12 298.56 208.5 350.8 267.87 383a17 17 0 0016.18 0c59.37-32.22 97.76-84.46 114.25-155.61a343.33 343.33 0 008.49-75.86 16.82 16.82 0 00-14.26-16.67z" fill="#0d2333"/><path d="M266.88 44.37c-19.95 19.51-53.65 57.81-136.44 62.4a16 16 0 00-15.09 14.64c-4.15 50.89-5.58 223.83 155.23 297.45a2.88 2.88 0 004.09-2.61V43c0-.88.49.74 0 0-1.22-1.87-6.09-.3-7.79 1.37z" style="mix-blend-mode:multiply" fill="#0d2333"/><path class="cls-9" d="M338.19 237.56c0 35.19-28.53 67.54-63.7 67.54s-63.7-32.35-63.7-67.54 28.52-66.87 63.7-66.87c37.87 0 63.7 31.7 63.7 66.87z"/><path class="cls-13" d="M281.44 279.49a19.58 19.58 0 01-13.9 0 6.75 6.75 0 01-4.36-6.32v-70.45a7.43 7.43 0 015.16-7.08 20 20 0 0112.29 0 7.43 7.43 0 015.16 7.08v70.46a6.76 6.76 0 01-4.35 6.31z"/><rect class="cls-13" x="234.22" y="226.26" width="80.53" height="22.62" rx="9.05"/><path d="M274.49 170.69c-37.87 0-63.7 31.7-63.7 66.87s28.53 67.54 63.7 67.54" opacity=".6" fill="#221f1f"/></g></g></svg>