<svg width="520" height="407" fill="none" xmlns="http://www.w3.org/2000/svg"><path opacity=".25" d="M292.552 98.659c12.481 0 22.599-10.157 22.599-22.687 0-12.53-10.118-22.686-22.599-22.686-12.482 0-22.6 10.157-22.6 22.686 0 12.53 10.118 22.687 22.6 22.687z" fill="url(#paint0_linear)"/><path opacity=".25" d="M413.59 98.062c-4.832-9.276-11.208-11.25-20.303-6.626-1.993-10.124-7.92-17.545-19.062-14.987-6.125 1.404-12.712 8.427-13.2 14.987-5.901-3.618-7.921-8.242-15.841-4.28-4.594 2.292-5.584 6.625-6.812 11.475l75.218-.57z" fill="url(#paint1_linear)"/><path opacity=".25" d="M467.051 34.667c-4.963-9.527-11.511-11.568-20.87-6.784-2.046-10.403-8.132-18.036-19.577-15.399-6.283 1.445-13.056 8.654-13.557 15.399-6.059-3.71-8.185-8.468-16.316-4.4-4.713 2.359-5.729 6.772-6.997 11.794l77.317-.61z" fill="url(#paint2_linear)"/><path d="M505.651 234.764H217.109a14.235 14.235 0 01-5.822-1.248 14.279 14.279 0 01-4.809-3.523 14.373 14.373 0 01-3.56-11.131l10.178-91.899h282.496a14.255 14.255 0 019.432 3.573 14.359 14.359 0 014.732 8.937l10.125 79.111a14.388 14.388 0 01-3.458 11.332 14.242 14.242 0 01-10.772 4.848z" fill="#162D3D"/><path d="M218.652 234.764h284.529v161.562a9.705 9.705 0 01-2.822 6.84 9.604 9.604 0 01-6.814 2.833H233.12a14.478 14.478 0 01-10.267-4.269 14.586 14.586 0 01-4.253-10.307V234.764h.052z" fill="#0D2333" stroke="url(#paint3_linear)" stroke-width=".333" stroke-miterlimit="10"/><path opacity=".27" d="M219.841 247.141c.528-.358 141.499 1.431 141.499 1.431m-141.499 16.763c.528-.357 141.499 1.432 141.499 1.432m-141.499 16.762c.528-.358 142.726 1.431 142.726 1.431m-142.726 16.764c.541-.358 142.739 1.431 142.739 1.431m-142.739 16.763c.541-.357 142.739 1.432 142.739 1.432m-142.739 16.762c.541-.358 142.04 1.431 142.04 1.431m-142.04 16.763c.528-.358 142.04 1.431 142.04 1.431m-142.04 16.764c.541-.358 142.726 1.431 142.726 1.431m-142.726 16.763c.528-.358 142.726 1.431 142.726 1.431" stroke="#fff" stroke-width=".333" stroke-miterlimit="10"/><path d="M267.378 273.418h-21.371c-4.419 0-8 3.596-8 8.031v65.727c0 4.435 3.581 8.03 8 8.03h21.371c4.419 0 8-3.595 8-8.03v-65.727c0-4.435-3.581-8.031-8-8.031z" fill="#0D2333"/><path opacity=".25" d="M256.223 273.298l.503 82.133" stroke="#fff" stroke-width="1.331" stroke-miterlimit="10"/><path opacity=".25" d="M237.781 338.377l37.741.519" stroke="#fff" stroke-width=".665" stroke-miterlimit="10"/><path d="M321.565 273.935h-20.659c-4.615 0-8.356 3.755-8.356 8.388v65.011c0 4.633 3.741 8.389 8.356 8.389h20.659c4.615 0 8.356-3.756 8.356-8.389v-65.011c0-4.633-3.741-8.388-8.356-8.388z" fill="#0D2333"/><path opacity=".25" d="M310.768 273.803l.503 82.132" stroke="#fff" stroke-width="1.331" stroke-miterlimit="10"/><path opacity=".25" d="M292.313 338.854l37.741.505" stroke="#fff" stroke-width=".665" stroke-miterlimit="10"/><path d="M452.305 348.17a3.569 3.569 0 01-.551 1.998 3.538 3.538 0 01-3.619 1.589 3.529 3.529 0 01-1.835-.95 3.558 3.558 0 01.492-5.49 3.53 3.53 0 011.975-.605 3.49 3.49 0 012.481.995 3.52 3.52 0 011.057 2.463z" fill="#86BC43"/><path d="M483.617 316.565a400.669 400.669 0 013.459 41.835m-2.85-27.047c-.964-2.65-6.733-3.975-8.621-6.095m10.232 8.627c1.914-3.976 5.095-7.858 7.392-11.635" stroke="#fff" stroke-width=".985" stroke-miterlimit="10"/><path d="M483.856 358.4h6.865a6.146 6.146 0 014.359 1.813 6.203 6.203 0 011.805 4.376v40.457h-19.167v-40.457c0-1.637.646-3.207 1.796-4.367a6.156 6.156 0 014.342-1.822z" fill="#162D3D"/><path d="M481.903 358.4h10.824c1.845 0 3.615.736 4.919 2.046a6.995 6.995 0 012.038 4.938v2.226h-24.725v-2.226c0-1.85.731-3.624 2.033-4.933a6.944 6.944 0 014.911-2.051zm21.634-123.093c0-6.97-1.492-11.158-4.238-14.497l-60.987-74.208a3.615 3.615 0 00-2.715-1.321 3.6 3.6 0 00-2.763 1.215l-66.004 74.208c-3.036 3.405-4.713 7.831-4.713 15.053l141.42-.45zM92.757 37.741c20.079-39.105 77.515-49.508 128.285-23.243 50.77 26.264 75.653 79.337 55.562 118.389-20.092 39.052-77.501 49.507-128.271 23.229-50.77-26.277-75.654-79.27-55.576-118.375z" fill="#0D2333"/><path d="M74.91 382.505l125.407-246.478-70.637-36.216-31.418 61.739-21.477 6.983-6.93 13.609 6.956 21.561-7.59 14.921-14.39 4.677-4.197 8.269 2.482 7.713-3.169 6.241-15.444 5.022-14.521 28.663 6.112 18.95-5.663 11.131-10.323 3.353-7.393 14.576 4.396 13.65-2.772 5.459a39.957 39.957 0 00-2.41 30.374 39.852 39.852 0 007.547 13.56 39.68 39.68 0 0012.143 9.629 39.538 39.538 0 0043.766-5.157 39.795 39.795 0 009.591-12.19l-.066-.039z" fill="#0D2333"/><path opacity=".25" d="M159.235 72.38c-5.399 10.853 1.518 25.43 15.564 32.519 14.046 7.09 29.847 4.148 35.299-6.625 5.452-10.774-1.505-25.377-15.551-32.506-14.045-7.13-29.86-4.2-35.312 6.612z" fill="#0D2333"/><path opacity=".25" d="M160.082 73.07c-5.452 10.826 1.518 25.376 15.564 32.506 14.045 7.129 29.86 4.16 35.312-6.626 5.452-10.787-1.518-25.377-15.564-32.506-14.046-7.13-29.86-4.188-35.312 6.626z" fill="#000"/><path d="M301.171 190.491c9.718 0 17.596-7.908 17.596-17.664 0-9.755-7.878-17.664-17.596-17.664-9.719 0-17.597 7.909-17.597 17.664 0 9.756 7.878 17.664 17.597 17.664z" fill="url(#paint4_linear)"/><path d="M197.189 67.332s-24.87 18.552-7.709 60.188c0 0 20.25 51.297 77.422 62.905 0 0 35.497 7.951 51.338-22.143 0 0-1.703-11.622-14.917-13 0 0-5.676 27.126-43.008 14.166a88.448 88.448 0 01-27.722-15.809c-11.524-9.634-27.444-26.503-30.15-47.705 0 0-3.261-16.353 7.788-25.297-.052.026-5.359-9.422-13.042-13.305zm81.17 7.076s5.716 10.92 5.215 29.153a104.354 104.354 0 0115.92 24.211h19.801s-7.577-29.763-40.936-53.364z" fill="#86BC43"/><path d="M421.811 178.207h24.355c2.766 0 5.419 1.103 7.374 3.066a10.488 10.488 0 013.055 7.403v15.265a22.73 22.73 0 01-6.619 16.042 22.557 22.557 0 01-15.981 6.645 22.553 22.553 0 01-15.98-6.645 22.73 22.73 0 01-6.619-16.042v-15.265c0-2.777 1.098-5.44 3.054-7.403a10.41 10.41 0 017.374-3.066h-.013zm-15.234 101.652h54.744c1.67 0 3.272.666 4.452 1.851a6.334 6.334 0 011.845 4.47v119.528h-67.324V286.18c0-1.674.662-3.28 1.84-4.465a6.282 6.282 0 014.443-1.856z" fill="#162D3D"/><path d="M410.671 287.306h47.404c.879 0 1.722.35 2.343.974s.971 1.47.971 2.352v115.049h-54.097V290.579a3.336 3.336 0 011.012-2.341 3.318 3.318 0 012.367-.932z" fill="#0D2333"/><path d="M485.347 343.015c13.247 0 23.986-10.863 23.986-24.263 0-13.401-10.739-24.264-23.986-24.264s-23.986 10.863-23.986 24.264c0 13.4 10.739 24.263 23.986 24.263z" fill="#86BC43"/><defs><linearGradient id="paint0_linear" x1="269.939" y1="75.972" x2="315.151" y2="75.972" gradientUnits="userSpaceOnUse"><stop stop-color="#fff" stop-opacity="0"/><stop offset="1" stop-color="#fff"/></linearGradient><linearGradient id="paint1_linear" x1="23488.1" y1="2687.23" x2="27775.5" y2="2687.23" gradientUnits="userSpaceOnUse"><stop stop-color="#fff" stop-opacity="0"/><stop offset="1" stop-color="#fff"/></linearGradient><linearGradient id="paint2_linear" x1="27195.5" y1="1574.46" x2="31723.9" y2="1574.46" gradientUnits="userSpaceOnUse"><stop stop-color="#fff" stop-opacity="0"/><stop offset="1" stop-color="#fff"/></linearGradient><linearGradient id="paint3_linear" x1="218.494" y1="320.381" x2="503.34" y2="320.381" gradientUnits="userSpaceOnUse"><stop stop-color="#0F2333"/><stop offset="1" stop-color="#0A0E11"/></linearGradient><linearGradient id="paint4_linear" x1="283.574" y1="172.827" x2="318.781" y2="172.827" gradientUnits="userSpaceOnUse"><stop stop-color="#102332"/><stop offset="1" stop-color="#0D1113"/></linearGradient></defs></svg>