<svg width="403" height="448" fill="none" xmlns="http://www.w3.org/2000/svg"><path d="M141.963 217.175c5.316.123 13.231-.123 13.35-5.653 0-.615 3.544-5.531 3.425-6.146-.354-2.212-2.244-2.95-1.063-4.793.945-1.721 2.127-3.442 3.426-4.917 2.245-2.581-1.89-6.637-.827-9.955.827-2.581 1.418-5.04 3.426-6.638 2.008-1.597 3.898-4.178 3.19-6.76-2.245 0-4.371.369-6.616.984-2.126.614-4.016 1.966-5.434 3.81-.591 1.106-1.181 2.212-1.89 3.196-1.654 2.089-4.489 2.581-6.852 3.81-3.071 1.721-5.08 4.793-5.552 8.358-.355 2.949.472 5.899-.236 8.726-.591 2.09-1.891 3.933-2.245 6.023-.827 4.179 2.008 7.989 4.843 11.062" fill="#263238"/><path d="M199.259 242.249l-3.544-10.939-12.05-10.324-25.398-10.57-38.512-2.336-17.248 82.964s-7.324 41.421-8.033 47.566c-.118.86 91.082.737 91.082.737l-9.687-24.336 18.547-47.197 4.843-25.565z" fill="#0F2333"/><path d="M96.246 217.79c-5.316 6.76-41.701 47.566-42.764 50.024-1.064 2.458-9.451 17.699-4.253 24.828l6.26 9.218 14.886-20.649c-.237.738 41.583-35.398 41.583-35.398l7.915-37.61c-.118 0-17.366 1.475-23.627 9.587z" fill="#0F2333"/><path d="M146.098 296.698l-.236-.246-.473-.738c-.236-.368-.472-.737-.827-1.106-.354-.368-.708-.86-1.063-1.352a15.838 15.838 0 00-1.417-1.72c-.591-.615-1.064-1.23-1.654-1.844-1.3-1.352-2.835-2.581-4.253-3.687a63.162 63.162 0 00-4.725-3.073c-.709-.369-1.536-.738-2.127-1.106-.591-.369-1.299-.615-2.008-.861l-1.654-.614c-.473-.123-.945-.369-1.299-.492l-.827-.246c-.119 0-.237 0-.237-.123h.237l.827.246c.354.123.826.246 1.299.369.591.123 1.063.369 1.654.615.591.245 1.299.491 2.008.86.709.369 1.418.737 2.245 1.106 3.307 1.721 6.379 4.056 9.096 6.76.591.615 1.181 1.229 1.654 1.844.472.614.945 1.106 1.417 1.72.473.615.709.984 1.064 1.475.354.492.59.861.709 1.107l.472.737.118.369zm78.678-122.663c3.189-2.336 4.135-7.129 2.717-10.939-1.536-3.811-4.489-6.76-8.151-8.235a45.433 45.433 0 00-11.341-2.95c-1.418-7.006-7.915-11.554-14.649-10.079a13.276 13.276 0 00-6.852 4.056c-2.953-3.318-7.915-3.564-11.222-.491a8.159 8.159 0 00-2.363 4.179l11.223 15.24-2.363 40.069c2.363 8.358 10.868 13.274 18.902 10.816 6.733-1.967 11.222-8.481 10.986-15.733a14.133 14.133 0 004.017-1.352c3.544.123 7.088-1.106 9.687-3.687 5.67-5.531 5.316-15.855-.591-20.894z" fill="#263238"/><path d="M176.932 228.36l3.425-8.972s10.869 2.335 18.075-10.57c3.662-6.392 7.442-17.822 10.396-27.163 2.599-8.481 1.181-20.772-7.088-23.107l-27.171-3.565c-2.481-.737-4.135 1.107-5.08 3.565l-.591 1.106-13.703 39.945-6.261 17.699c-2.599 7.621.709 15.979 7.797 19.42 7.442 3.564 16.42.246 19.846-7.62l.355-.738z" fill="#FABC9D"/><path d="M180.357 219.388a36.633 36.633 0 01-15.948-12.168s.827 11.553 14.531 15.609l1.417-3.441z" fill="#EB986F"/><path d="M184.728 150.313c-2.008 5.162.473 11.062 5.434 13.151.591.246 1.064.369 1.654.492 2.127.492 4.726.246 6.143 2.09 1.418 1.843.355 4.916 1.418 7.005 1.536 3.073 6.025 2.581 8.624 4.671 2.008 1.598 2.599 4.548 3.425 7.006.827 2.458 2.363 5.285 4.962 5.531a32.746 32.746 0 001.418-6.76c.236-2.336-.355-4.671-1.536-6.637-.827-.984-1.536-1.967-2.245-2.95-1.299-2.336-.708-5.285-1.063-7.989a11.447 11.447 0 00-5.552-8.358c-2.481-1.352-5.552-1.598-7.797-3.319-1.654-1.229-2.835-3.195-4.607-4.302-3.426-2.212-7.915-.86-11.577.738" fill="#263238"/><path d="M194.415 160.637c-1.536-1.106-4.489-3.687-4.725-5.531-.591-4.056-3.19-7.374-6.852-8.849-3.78-1.229-7.915.369-10.16 3.81-4.489-1.598-9.45-.614-12.994 2.704-3.663 3.442-5.435 8.604-4.726 13.643.118 1.352.118 2.581.118 3.933-1.299.492-2.599.983-3.898 1.721-6.025 4.056-.709 10.816-.709 10.816-2.363 3.81 1.063 6.145 3.19 7.62 2.126 1.475-.355 8.358 1.417 9.219L165 179.934l.708.738c4.017 2.826 8.033-5.9 8.033-8.973 2.245-.737 4.371-1.721 6.262-3.073 2.48-2.335 4.371-5.285 5.552-8.48 1.89.491 9.569.983 8.86.491z" fill="#263238"/><path d="M165.237 181.163c.708-2.212-.355-4.671-2.481-5.531-.591-.246-1.182-.246-1.89-.246-1.654.246-3.308 1.475-4.371 4.671-2.836 8.481 5.906 9.587 6.025 9.341.118-.246 1.535-4.671 2.717-8.235z" fill="#FABC9D"/><path d="M161.101 185.342s-.236 0-.472.123c-.355 0-.709-.123-1.064-.369-.826-1.106-1.063-2.581-.59-3.81.236-.737.59-1.352 1.063-1.966.354-.492.827-.738 1.418-.738.354 0 .708.369.708.738 0 .245-.118.368 0 .491.119.123.237-.123.237-.491 0-.246 0-.369-.118-.615-.119-.246-.473-.369-.709-.492a1.918 1.918 0 00-1.89.738c-.591.614-1.064 1.352-1.3 2.212-.472 1.721-.236 3.565.827 4.425.354.246.945.369 1.418.246.354-.246.472-.492.472-.492z" fill="#EB986F"/><path d="M208.946 196.404c.827-.123 1.654-.369 2.599-.615 2.244-.737 4.253-2.212 5.67-4.179 1.063-1.352 1.772-2.827 2.245-4.424a11.465 11.465 0 000-5.654c-1.182-4.302-4.489-7.621-8.624-8.727-.354-.123-.827-.123-1.181-.246-.355 0-.827-.122-1.182-.122h-.59l.354-.492c.473-.86.709-1.967.591-2.95a6.352 6.352 0 00-1.064-2.827c-1.063-1.598-2.599-2.827-4.489-3.564-3.426-1.352-6.851-1.598-9.45-2.95a9.636 9.636 0 01-4.726-4.793 5.117 5.117 0 01-.354-1.844c0-.246 0-.492.118-.615 0 .861.236 1.721.473 2.459a9.149 9.149 0 004.607 4.424c1.417.615 2.835 1.106 4.371 1.352a34.78 34.78 0 015.079 1.475c.946.369 1.891.738 2.718 1.352.826.615 1.535 1.475 2.126 2.335.591.984 1.063 1.967 1.181 3.073.118 1.229-.118 2.458-.709 3.442l-.236-.492c.355 0 .827 0 1.182.123.472 0 .827.123 1.299.246 4.371 1.106 7.915 4.67 9.096 9.341.473 1.966.473 4.056-.118 6.022-.472 1.721-1.299 3.196-2.362 4.548-1.536 1.967-3.663 3.442-6.025 4.056-.591.246-1.3.369-1.89.369-.237-.123-.473-.123-.709-.123zm14.53-26.425c-.473-.861-1.063-1.598-1.772-2.336-.827-.737-1.772-1.229-2.835-1.598-1.3-.368-2.717-.368-4.017.246l-.472.246.118-.614c.59-3.565-.709-7.252-3.426-9.587-2.245-1.967-5.08-2.213-7.561-2.459-2.244 0-4.489-.245-6.733-.737a10.225 10.225 0 01-4.135-2.09c-.354-.245-.591-.614-.827-.983a1.525 1.525 0 00-.236-.369c.354.369.827.738 1.181 1.107a8.617 8.617 0 004.017 1.843c2.244.369 4.371.615 6.615.492 1.3 0 2.717.246 4.017.492 1.417.368 2.835.983 3.898 1.966 2.954 2.458 4.253 6.391 3.544 10.202l-.354-.369c1.417-.615 2.953-.615 4.371-.123a8.98 8.98 0 012.953 1.721 7.148 7.148 0 011.3 1.843c.236.615.354.861.354 1.107z" fill="#465B65"/><path d="M160.274 189.521c.118 0 0 .737-.945 1.352-1.181.737-2.835.246-3.544-.983a2.569 2.569 0 01-.236-2.09c0-.246.118-.369.236-.492.355-.614.827-.983 1.418-1.229 1.063-.368 1.654 0 1.654.123-.473 0-.945.123-1.418.369a2.371 2.371 0 00-1.063 1.106c-.473 1.106.118 2.458 1.181 2.95h.118c.473.123 1.064.123 1.536-.123.591-.492.945-1.106 1.063-.983z" fill="#89C142"/><path d="M89.394 254.786a9.343 9.343 0 01-.472-1.721c-.827-2.704-2.009-5.285-3.662-7.497-.355-.492-.71-.861-1.064-1.352a5.7 5.7 0 011.182 1.229 20.289 20.289 0 013.78 7.497c.118.615.236 1.229.236 1.844z" fill="#F9FAFB"/><path d="M83.842 242.495c.355.369.591.86.827 1.352.237.492.473.983.473 1.475-.355-.369-.59-.861-.827-1.352-.236-.492-.473-.983-.473-1.475z" fill="#F9FAFB"/><path d="M83.133 243.109c.118-.122.473.369.945.861.473.491.827.86.827.983s-.59-.246-1.063-.737c-.473-.492-.827-.984-.709-1.107z" fill="#F9FAFB"/><path d="M82.66 244.093c.473 0 .828.123 1.182.369.354.122.827.368 1.063.737a1.94 1.94 0 01-1.181-.369c-.59-.369-1.063-.737-1.063-.737z" fill="#F9FAFB"/><path d="M82.542 245.199c0-.123.473-.123 1.182-.123.708 0 1.18.123 1.18.245 0 .123-.472.123-1.18.123-.71 0-1.182-.123-1.182-.245zm1.3 3.687c.237-.123.473-.246.71-.123.59 0 1.299.123 1.89.369.59.246 1.062.615 1.535 1.106.354.369.472.738.354.738-.59-.615-1.3-1.106-2.008-1.598-.827-.369-1.654-.492-2.48-.492z" fill="#F9FAFB"/><path d="M82.66 247.903c0-.123.473 0 1.064.369.59.368.945.614.827.737s-.473-.123-.945-.491c-.473-.369-.945-.492-.945-.615z" fill="#F9FAFB"/><path d="M82.307 248.886c0-.123.472-.246 1.063-.246.59 0 1.063.369 1.063.369s-.473 0-1.063-.123-1.063 0-1.063 0z" fill="#F9FAFB"/><path d="M82.542 250.115c0-.123.236-.368.709-.737s.827-.492.827-.492-.236.369-.709.738c-.472.368-.827.491-.827.491z" fill="#F9FAFB"/><path d="M83.842 250.238c-.118 0 0-.369 0-.86 0-.492.237-.861.355-.738s0 .369 0 .861c0 .491-.355.86-.355.737zm4.843-4.916c-.236.86-.472 1.598-.59 2.458 0 .86 0 1.721.118 2.581-.71-1.721-.591-3.564.472-5.039z" fill="#F9FAFB"/><path d="M87.504 243.478c.118 0 .354.369.59 1.106.237.369.237.861.237 1.23-.237-.369-.473-.738-.473-1.107-.236-.614-.473-1.229-.354-1.229zm1.654 0c.118 0 0 .492-.236 1.106-.236.615-.354 1.106-.354 1.106s-.118-.491.118-1.229c.236-.737.354-1.106.472-.983zm1.3 1.229c0 .123-.355.246-.827.492-.473.246-.827.492-.945.492s.236-.492.708-.738c.355-.123.71-.246 1.064-.246zm-.237 1.721c0 .123-.354-.123-.827-.123-.472 0-.827 0-.827-.123s.355-.369.946-.246c.59.123.708.369.708.492zm24.218 78.17c-.237-.491-.355-1.106-.473-1.72-.354-1.352-.945-2.704-1.536-3.934-.59-1.229-1.299-2.458-2.126-3.564-.354-.492-.709-.86-1.063-1.352.472.369.827.738 1.181 1.229a20.288 20.288 0 013.78 7.498c.118.614.237 1.229.237 1.843z" fill="#F9FAFB"/><path d="M108.886 312.307c.355.369.591.861.827 1.352.237.492.473.984.473 1.475-.354-.368-.591-.86-.827-1.352-.236-.491-.473-.983-.473-1.475z" fill="#F9FAFB"/><path d="M108.178 312.922s.472.369.945.86c.472.492.827.861.827.984 0 .122-.591-.246-1.063-.738-.473-.492-.709-.983-.709-1.106z" fill="#F9FAFB"/><path d="M107.705 313.905c.473 0 .827.123 1.181.369.355.123.827.368 1.064.614-.473 0-.827-.123-1.182-.368-.59-.246-1.063-.492-1.063-.615zm0 1.106c0-.123.473-.123 1.181-.123.709 0 1.182.123 1.182.123s-.473.123-1.182.123c-.708 0-1.181 0-1.181-.123zm1.181 3.688c.237-.123.473-.246.709-.123 1.3 0 2.481.491 3.308 1.475.354.368.473.614.354.737-.59-.614-1.299-1.106-2.008-1.598-.591-.368-1.417-.491-2.363-.491z" fill="#F9FAFB"/><path d="M107.705 317.838c0-.123.591 0 1.063.246.473.246.945.615.827.738-.118.122-.472-.123-.945-.492-.472-.369-.945-.492-.945-.492z" fill="#F9FAFB"/><path d="M107.35 318.699c.355-.246.709-.369 1.064-.246.59 0 1.063.369 1.063.369h-1.063c-.591 0-1.064-.001-1.064-.123z" fill="#F9FAFB"/><path d="M107.587 319.928c0-.123.236-.369.709-.738.473-.368.827-.491.827-.491s-.236.368-.709.737c-.472.369-.709.615-.827.492z" fill="#F9FAFB"/><path d="M108.886 320.174c-.118 0 0-.369 0-.861 0-.491.237-.737.355-.737.119 0 0 .368 0 .86s-.236.738-.355.738zm4.844-5.04c-.237.86-.473 1.598-.591 2.458 0 .861 0 1.721.118 2.581-.472-.737-.591-1.72-.472-2.581.118-.86.472-1.721.945-2.458zm-1.181-1.843c.118 0 .354.368.59 1.106.237.368.237.86.237 1.229-.237-.369-.473-.738-.473-1.106-.236-.615-.472-1.229-.354-1.229z" fill="#F9FAFB"/><path d="M114.202 313.291c.118 0 0 .491-.236 1.106a9.713 9.713 0 00-.355 1.106s-.118-.492.118-1.229c.119-.369.237-.738.473-.983zm1.418 1.351c0 .123-.355.246-.827.492-.473.246-.827.492-.945.492s.236-.492.827-.738c.59-.246.945-.368.945-.246zm-.354 1.598c0 .123-.355-.122-.827-.122-.473 0-.827 0-.827-.123s.354-.369.945-.246.827.369.709.491z" fill="#F9FAFB"/><path d="M125.898 260.194a9.352 9.352 0 01-.473-1.721c-.827-2.704-2.008-5.285-3.662-7.497-.354-.492-.709-.861-1.063-1.352.472.369.827.737 1.181 1.229a20.293 20.293 0 013.781 7.497c.118.738.236 1.229.236 1.844z" fill="#89C142"/><path d="M120.345 247.903c.355.369.591.86.827 1.352.236.491.473.983.473 1.475-.591-.861-1.064-1.721-1.3-2.827zm-.709.737c.119 0 .473.369.946.861.472.491.826.86.826.983s-.59-.246-1.063-.737a3.758 3.758 0 01-.709-1.107z" fill="#89C142"/><path d="M119.164 249.501c.472 0 .827.123 1.181.368.355.123.827.369 1.063.738a1.94 1.94 0 01-1.181-.369c-.591-.369-1.063-.614-1.063-.737z" fill="#89C142"/><path d="M119.164 250.607c0-.123.472-.123 1.181-.123a5.15 5.15 0 011.181.123c-.354.123-.826.246-1.181.123-.709.123-1.181 0-1.181-.123zm1.299 3.687c.237-.123.473-.246.709-.123.591 0 1.3.123 1.772.369.591.246 1.063.615 1.536 1.106.236.246.354.369.354.738-.59-.615-1.299-1.107-2.008-1.598-.709-.246-1.536-.492-2.363-.492z" fill="#89C142"/><path d="M119.164 253.434c0-.123.472 0 1.063.369.591.368.945.614.827.737s-.473-.123-.945-.492c-.473-.368-.945-.614-.945-.614z" fill="#89C142"/><path d="M118.81 254.294c0-.123.472-.246 1.063-.246s1.063.246 1.063.369h-1.063c-.591-.123-1.063 0-1.063-.123z" fill="#89C142"/><path d="M119.164 255.523c0-.123.236-.369.709-.737.472-.369.827-.492.827-.492s-.237.369-.709.737c-.473.369-.827.615-.827.492z" fill="#89C142"/><path d="M120.345 255.769c-.118 0 0-.369 0-.86 0-.492.237-.861.355-.738s0 .369 0 .86c0 .492-.237.738-.355.738zm4.844-5.039c-.236.86-.472 1.598-.59 2.458 0 .86.118 1.721.236 2.581-.709-1.598-.591-3.564.354-5.039z" fill="#89C142"/><path d="M124.008 248.886c.118 0 .354.492.59 1.106.237.615.355 1.229.237 1.229-.237-.368-.355-.737-.473-1.106-.236-.614-.354-1.106-.354-1.229zm1.653 0c.119 0 0 .492-.236 1.106a9.864 9.864 0 00-.354 1.107s-.118-.492.118-1.229c.236-.738.472-.984.472-.984zm1.418 1.352c0 .123-.355.246-.827.492-.473.246-.827.491-.945.491-.119 0 .236-.491.827-.737.59-.246.945-.369.945-.246zm-.237 1.598c0 .123-.354-.123-.827-.123-.472 0-.827 0-.827-.123s.355-.369.946-.246c.59.123.708.492.708.492z" fill="#89C142"/><path d="M98.136 235.612c.473-.246 1.063-.492 1.536-.615 2.481-1.106 4.843-2.581 6.733-4.547a5.7 5.7 0 011.182-1.229c-.355.491-.709.983-1.063 1.352a17.705 17.705 0 01-6.852 4.67 3.519 3.519 0 01-1.536.369z" fill="#F9FAFB"/><path d="M109.359 228.729c0 .123-.473.492-1.182.983-.354.369-.827.492-1.417.615 0-.123.472-.492 1.181-.983a3.865 3.865 0 011.418-.615z" fill="#F9FAFB"/><path d="M108.65 228.115c0 .122-.237.491-.709 1.106-.473.614-.709.983-.827.983s.118-.615.591-1.106c.472-.492.826-1.106.945-.983z" fill="#F9FAFB"/><path d="M107.705 227.623c0 .491-.118.86-.236 1.352-.236.737-.472 1.229-.591 1.229 0-.492.119-.86.237-1.352a5.84 5.84 0 01.59-1.229zm-1.063.123c.118 0 .237.491.237 1.106.118.369 0 .86-.119 1.229-.118-.369-.236-.737-.236-1.106 0-.738 0-1.229.118-1.229zm-3.426 1.598c.118.246.236.491.236.737.119 1.352-.236 2.704-1.181 3.565-.354.368-.591.491-.591.491.591-.614.945-1.475 1.3-2.212.236-.738.354-1.721.236-2.581z" fill="#F9FAFB"/><path d="M104.043 227.991c.118 0 0 .492-.237 1.107-.236.614-.59.983-.59.983 0-.369.118-.738.354-1.106.118-.492.355-.984.473-.984z" fill="#F9FAFB"/><path d="M103.098 227.746c.118 0 .355.491.355 1.106 0 .615-.237 1.106-.237 1.106v-1.106c0-.615-.236-1.106-.118-1.106zm-1.181.369s.354.245.708.614c.355.369.591.738.473.86-.118.123-.355-.245-.709-.614s-.472-.738-.472-.86z" fill="#F9FAFB"/><path d="M101.798 229.466c0-.122.355-.122.827 0 .473.123.827.246.827.246s-.354.123-.827 0c-.472-.123-.827-.123-.827-.246zm5.316 4.548l-2.481-.369-2.48.369a5.092 5.092 0 014.961 0z" fill="#F9FAFB"/><path d="M108.768 232.662c0 .123-.354.492-.945.737-.591.246-1.181.492-1.181.369s.472-.369 1.063-.615c.59-.245.945-.614 1.063-.491zm.118 1.721c0 .123-.472 0-1.063-.123s-1.063-.246-1.063-.369.472-.123 1.181 0c.709.123.945.369.945.492zm-1.181 1.475c-.118 0-.236-.369-.591-.861-.354-.491-.59-.86-.472-.86s.472.246.827.737c.354.492.354.984.236.984zm-1.536-.123c-.118 0 0-.369.118-.861.119-.491-.118-.86 0-.86.119 0 .355.369.355.86 0 .492-.355.984-.473.861z" fill="#F9FAFB"/><path d="M67.776 265.602c.472-.246 1.063-.492 1.535-.615 2.481-1.106 4.844-2.581 6.734-4.547l1.181-1.23c-.236.492-.709.984-1.063 1.352-.945.984-2.008 1.967-3.19 2.704-1.18.738-2.362 1.352-3.662 1.844-.472.246-.945.369-1.535.492z" fill="#89C142"/><path d="M78.999 258.596c-.355.368-.709.737-1.181.983-.355.369-.827.492-1.418.615.827-.738 1.772-1.23 2.599-1.598z" fill="#89C142"/><path d="M78.408 257.981s-.236.492-.709 1.106c-.472.615-.709.984-.827.984s.118-.615.59-1.107c.473-.491.828-1.106.946-.983z" fill="#89C142"/><path d="M77.462 257.613c0 .491-.118.86-.236 1.352-.118.491-.236.86-.59 1.229 0-.492.118-.861.236-1.352.236-.738.472-1.352.59-1.229z" fill="#89C142"/><path d="M76.4 257.613c.118 0 .236.491.236 1.106.118.369 0 .86 0 1.229-.118-.369-.236-.737-.236-1.106a2.172 2.172 0 010-1.229zm-3.426 1.72c.118.246.236.492.236.738.118.615 0 1.352-.118 1.967-.236.614-.473 1.229-.945 1.72-.355.369-.59.492-.59.492 1.062-1.352 1.653-3.196 1.417-4.917z" fill="#89C142"/><path d="M73.683 257.981c.118 0 0 .492-.237 1.107-.236.614-.59.983-.59.983 0-.369.118-.738.354-1.106.236-.615.473-1.107.473-.984z" fill="#89C142"/><path d="M72.855 257.613c.119 0 .355.491.355 1.106a2.82 2.82 0 01-.236 1.106v-1.106c-.119-.615-.237-.983-.119-1.106zm-1.181.491s.354.246.709.615c.354.369.59.737.472.86s-.354-.246-.709-.614c-.354-.369-.59-.861-.472-.861z" fill="#89C142"/><path d="M71.556 259.333c0-.123.355-.123.827 0 .473.123.827.246.827.246s-.354.123-.827 0c-.472-.123-.827-.123-.827-.246zm5.316 4.548l-2.481-.369c-.827.123-1.654.246-2.48.492 1.535-.983 3.425-.983 4.96-.123z" fill="#89C142"/><path d="M78.408 262.529s-.355.492-.945.737c-.591.246-1.182.492-1.182.369s.473-.369 1.063-.614c.591-.246 1.064-.615 1.064-.492zm.236 1.721c0 .123-.473 0-1.064-.123-.59-.123-1.063-.246-1.063-.369s.473-.123 1.182 0c.354.123.709.246.945.492zm-1.181 1.475c-.118 0-.236-.369-.59-.861-.355-.491-.592-.86-.473-.86.118 0 .472.246.708.737.237.492.473.984.355.984zm-1.536-.123c-.119 0 0-.369.118-.861.118-.491-.118-.86 0-.86s.355.369.355.983c0 .615-.355.861-.474.738z" fill="#89C142"/><path d="M144.917 314.52c.473-.246 1.063-.492 1.536-.615 2.481-1.106 4.843-2.581 6.733-4.547a5.727 5.727 0 011.182-1.23c-.355.492-.709.984-1.063 1.352a17.698 17.698 0 01-6.852 4.671c-.473.123-.945.369-1.536.369z" fill="#F9FAFB"/><path d="M156.14 307.637c0 .123-.472.491-1.181.983-.355.369-.827.492-1.418.615 0-.123.473-.492 1.182-.984.472-.368.945-.491 1.417-.614z" fill="#F9FAFB"/><path d="M155.431 306.899c0 .123-.236.492-.708 1.106-.473.615-.709.984-.827.984-.119 0 .118-.615.59-1.107l.945-.983z" fill="#F9FAFB"/><path d="M154.486 306.531c0 .491-.118.86-.236 1.229-.236.737-.473 1.229-.591 1.229 0-.492.118-.861.236-1.352.355-.615.591-1.106.591-1.106z" fill="#F9FAFB"/><path d="M153.423 306.654c.118 0 .237.491.237 1.106.118.368 0 .86-.119 1.229-.118-.369-.236-.738-.236-1.229 0-.615 0-1.106.118-1.106zm-3.427 1.597c.119.246.237.492.237.738.118 1.352-.237 2.704-1.182 3.564-.354.369-.59.492-.59.492.59-.615.945-1.475 1.299-2.212.236-.861.355-1.721.236-2.582z" fill="#F9FAFB"/><path d="M150.824 306.899c.118 0 0 .492-.236 1.106a3.204 3.204 0 01-.591.984c0-.369.118-.738.354-1.107.237-.491.355-.983.473-.983z" fill="#F9FAFB"/><path d="M149.879 306.654c.118 0 .355.491.355 1.106 0 .614-.237 1.106-.237 1.106v-1.106c0-.615-.236-1.106-.118-1.106z" fill="#F9FAFB"/><path d="M148.816 307.022s.354.246.708.615c.355.368.591.737.473.86s-.354-.246-.709-.614c-.354-.369-.59-.738-.472-.861z" fill="#F9FAFB"/><path d="M148.579 308.374c0-.123.355-.123.827 0 .473.123.827.246.827.246s-.354.123-.827 0c-.472-.123-.827-.246-.827-.246zm5.317 4.548l-2.481-.369c-.827.123-1.654.246-2.481.492a4.14 4.14 0 012.363-.738 3.763 3.763 0 012.599.615zm1.653-1.475c0 .123-.354.491-.945.737a1.94 1.94 0 01-1.181.369c0-.123.472-.369 1.063-.615a15.24 15.24 0 001.063-.491z" fill="#F9FAFB"/><path d="M155.786 313.291c0 .123-.473 0-1.064-.123-.59-.123-1.063-.246-1.063-.369s.473-.123 1.182 0c.708.123.945.369.945.492zm-1.181 1.474c-.118 0-.237-.368-.591-.86s-.591-.86-.473-.86c.119 0 .473.246.827.737.355.492.355.983.237.983zm-1.536-.122c-.119 0 0-.369.118-.861.118-.491-.118-.86 0-.86s.355.369.355.86c0 .492-.473.861-.473.861zm9.686 18.927c.473-.245 1.063-.491 1.536-.614 1.181-.492 2.363-1.229 3.544-1.967a16.542 16.542 0 003.189-2.581l1.182-1.229c-.355.492-.709.983-1.063 1.352-.945.983-2.009 1.967-3.19 2.704-1.181.738-2.363 1.352-3.662 1.844-.473.246-.945.369-1.536.491z" fill="#F9FAFB"/><path d="M173.978 326.565c0 .123-.472.491-1.181.983-.354.369-.827.492-1.418.615.827-.615 1.654-1.23 2.599-1.598z" fill="#F9FAFB"/><path d="M173.269 325.95s-.236.492-.708 1.106c-.473.615-.709.984-.827.984s.118-.615.59-1.107l.945-.983z" fill="#F9FAFB"/><path d="M172.324 325.581c0 .492-.118.861-.237 1.352-.118.492-.236.861-.59 1.229 0-.491.118-.86.236-1.352.236-.737.473-1.229.591-1.229z" fill="#F9FAFB"/><path d="M171.261 325.581c.118 0 .237.492.237 1.106.118.369.118.861-.119 1.23-.118-.369-.236-.738-.236-1.107 0-.614 0-1.229.118-1.229zm-3.426 1.721c.118.246.237.492.237.738.118 1.352-.237 2.704-1.182 3.564-.354.369-.59.492-.59.492 1.181-1.229 1.772-3.073 1.535-4.794z" fill="#F9FAFB"/><path d="M168.663 325.95c.118 0 0 .492-.237 1.106-.236.615-.59.984-.59.984 0-.369.236-.738.354-1.107.236-.491.354-.983.473-.983z" fill="#F9FAFB"/><path d="M167.717 325.704c.119 0 .355.492.355 1.107 0 .614-.236 1.106-.236 1.106v-1.106c0-.615-.237-1.107-.119-1.107zm-1.182.369c.119 0 .355.246.709.615.355.369.591.737.473.86s-.355-.246-.709-.614a2.114 2.114 0 01-.473-.861z" fill="#F9FAFB"/><path d="M166.417 327.302c0-.123.355-.123.827 0 .473.123.827.246.827.246s-.354.123-.827 0c-.472-.123-.827-.123-.827-.246zm5.316 4.671l-2.481-.369-2.481.369a4.543 4.543 0 014.962 0z" fill="#F9FAFB"/><path d="M173.388 330.498s-.355.491-.945.737c-.591.246-1.182.492-1.182.369s.473-.369 1.063-.615c.591-.245.946-.614 1.064-.491zm.236 1.844c0 .123-.473 0-1.181-.123-.709-.123-1.064-.246-1.064-.369s.473-.123 1.182 0 1.063.369 1.063.492zm-1.182 1.474c-.118 0-.236-.368-.591-.86-.354-.492-.59-.86-.472-.86s.472.246.827.737c.354.492.236.983.236.983zm-1.654-.122c-.118 0 0-.369 0-.861 0-.491-.118-.86 0-.86.119 0 .355.369.355.86 0 .492-.236.861-.355.861zm-40.992.614c.472-.246 1.063-.492 1.536-.615 1.181-.491 2.362-1.229 3.544-1.966a16.617 16.617 0 003.189-2.581 5.7 5.7 0 011.182-1.229c-.355.491-.709.983-1.064 1.352a17.696 17.696 0 01-6.851 4.67c-.473.123-.945.246-1.536.369z" fill="#F9FAFB"/><path d="M141.019 327.302c0 .123-.472.492-1.181.984-.355.368-.827.491-1.418.614 0-.123.473-.492 1.181-.983.473-.246.946-.492 1.418-.615z" fill="#F9FAFB"/><path d="M140.31 326.688c0 .123-.236.491-.709 1.106-.472.614-.709.983-.827.983s.118-.614.591-1.106l.945-.983z" fill="#F9FAFB"/><path d="M139.365 326.319c0 .491-.119.86-.237 1.352-.236.737-.472 1.229-.59 1.229 0-.492.118-.86.236-1.352l.591-1.229zm-1.063 0c.236.369.236.737.236 1.106.119.369 0 .86-.118 1.229-.118-.369-.237-.737-.237-1.106 0-.615.119-1.229.119-1.229zm-3.308 1.721c.118.245.236.491.236.737.118.615 0 1.352-.118 1.967-.236.614-.473 1.229-.945 1.72-.355.369-.591.492-.591.492.591-.615.945-1.475 1.3-2.212 0-.984.118-1.844.118-2.704z" fill="#F9FAFB"/><path d="M135.703 326.688c.118 0 0 .491-.236 1.106-.236.614-.591.983-.591.983 0-.369.118-.737.355-1.106.236-.615.354-.983.472-.983z" fill="#F9FAFB"/><path d="M134.758 326.319c.118 0 .355.491.355 1.106 0 .615-.237 1.106-.237 1.106v-1.106c0-.615-.118-.983-.118-1.106zm-1.182.492c.118 0 .355.245.709.614s.591.86.473.86c-.119 0-.355-.245-.709-.614a2.1 2.1 0 01-.473-.86z" fill="#F9FAFB"/><path d="M133.577 328.04c0-.123.354-.123.827 0 .472.123.827.245.827.245s-.355.123-.827 0c-.473-.122-.945-.122-.827-.245zm5.197 4.547l-2.481-.369-2.481.369a5.094 5.094 0 014.962 0z" fill="#F9FAFB"/><path d="M140.428 331.235c0 .123-.354.492-.945.738-.59.246-1.181.491-1.181.369 0-.123.473-.369 1.063-.615.591-.246 1.063-.615 1.063-.492zm.237 1.721c0 .123-.473 0-1.182-.123-.708-.123-1.063-.246-1.063-.369 0-.122.473-.122 1.181 0 .709.123 1.064.492 1.064.492zm-1.182 1.598c-.118 0-.236-.369-.591-.86-.354-.492-.59-.861-.472-.861s.472.246.827.738c.354.491.236.983.236.983zm-1.536-.123c-.118 0 0-.492.119-.86.118-.369-.119-.861 0-.861.118 0 .355.369.355.984 0 .614-.474.737-.474.737z" fill="#F9FAFB"/><path d="M123.535 300.016c.118-.614.236-1.106.472-1.72.355-1.352.591-2.704.827-4.179a24.711 24.711 0 000-4.179c-.118-.615-.118-1.229-.118-1.721.236.615.355 1.106.355 1.721a26.184 26.184 0 010 4.302c-.119 1.475-.473 2.826-.945 4.178-.119.615-.355 1.107-.591 1.598z" fill="#89C142"/><path d="M125.308 286.619c.118 1.106-.118 2.09-.355 3.073-.118-1.106 0-2.09.355-3.073zm-.946.123c.236.369.354.861.354 1.229l.236 1.229c-.236-.368-.472-.737-.472-1.229-.118-.368-.118-.86-.118-1.229z" fill="#89C142"/><path d="M123.535 287.234c.118 0 .472.368.827.983.354.614.591 1.106.591 1.229s-.473-.369-.827-.983c-.237-.369-.473-.738-.591-1.229z" fill="#89C142"/><path d="M122.944 288.217c0-.123.473.123 1.063.492.591.368.945.737.827.737s-.472-.123-1.063-.492c-.591-.368-.945-.737-.827-.737zm-.945 3.687c.236 0 .472.123.709.246 1.063.738 1.772 1.844 2.008 3.196a.811.811 0 010 .737c-.118-.86-.473-1.721-.827-2.458-.591-.615-1.181-1.229-1.89-1.721z" fill="#89C142"/><path d="M121.526 290.552s.473.369.709.861c.236.491.355 1.106.355 1.106s-.355-.369-.591-.983c-.236-.615-.591-.984-.473-.984z" fill="#89C142"/><path d="M120.7 291.044c0-.123.472 0 1.063.369.591.368.709.86.591.86s-.355-.246-.827-.615c-.473-.368-.827-.491-.827-.614z" fill="#89C142"/><path d="M120.227 292.15c0-.123.355-.123.945-.123.591 0 .945 0 .945.123s-.472.123-.945.123c-.472 0-.945 0-.945-.123z" fill="#89C142"/><path d="M121.173 293.133s.118-.368.472-.737c.355-.369.709-.492.709-.492s-.118.369-.473.738c-.354.368-.59.614-.708.491zm6.733-1.352c-.591.492-1.181 1.106-1.772 1.844-.473.737-.827 1.475-1.181 2.212 0-.86.354-1.72.945-2.458.472-.86 1.181-1.352 2.008-1.598z" fill="#89C142"/><path d="M127.906 289.569c.118 0 .118.615 0 1.229-.118.615-.355 1.229-.473 1.229s0-.614.118-1.229c.118-.614.237-1.352.355-1.229z" fill="#89C142"/><path d="M129.324 290.429c0 .123-.355.369-.827.861-.473.491-.827.737-.945.614s.236-.491.709-.983c.472-.492.945-.615 1.063-.492zm.354 1.967c0 .123-.472 0-.945 0-.472 0-.945 0-.945-.123s.473-.246 1.063-.123c.591.123.945.123.827.246zm-1.064 1.106c-.118 0-.236-.368-.59-.614-.355-.246-.709-.492-.709-.615s.472 0 .945.369.473.86.354.86z" fill="#89C142"/><path opacity=".3" d="M142.082 304.441a15.315 15.315 0 00-3.544-5.162 244.944 244.944 0 01-12.05-15.487c-2.126-2.949-4.134-6.268-4.253-9.832 0-3.196 1.536-6.146 2.481-9.218 2.009-6.269 1.536-13.275 4.135-19.297 1.181-2.827 3.071-5.285 4.135-8.235 2.48-6.514.59-13.889-1.3-20.649l-3.898-9.095c-5.553 6.391-16.303 1.966-16.893 4.425-.591 2.212 3.189 25.565 2.599 27.777-2.363 8.85-4.135 17.822-6.025 25.319-1.182 5.04-2.363 10.325-.709 15.118 1.654 4.425 5.434 7.498 8.978 10.57 5.08 4.425 9.687 9.464 13.704 14.872 1.299 2.09 3.071 3.811 4.961 5.163 2.127 1.229 4.962 1.352 6.616-.369 1.654-1.598 1.89-3.933 1.063-5.9z" fill="#000"/><path d="M142.555 213.734s-8.033-7.743-9.097-9.587c-1.063-1.844-7.088-6.145-7.088-6.145-3.78-3.565-8.86-5.163-13.94-4.302-8.86 1.229-12.876 13.52-12.876 13.52s-.827 19.051 1.063 19.174c1.89.123 3.544.491 3.662-.861.118-1.352 0-6.514 0-6.514l3.426-4.425s1.772 17.453 3.899 17.822c2.126.369 3.662 1.106 3.898-.86.236-1.967-1.89-16.347-1.654-16.962.236-.614 4.371 15.61 4.371 15.61s1.418 3.933 3.19 3.687 2.953-1.475 2.48-3.073c-.472-1.597-2.244-19.542-2.244-19.542l4.135 10.324 2.008 9.095s2.363 1.598 3.19-.491c.826-2.09-.237-10.939-.237-10.939l-2.599-11.799 2.954 2.212s3.898 4.425 5.788 5.285c2.363 1.106 5.671-1.229 5.671-1.229z" fill="#A76E64"/><path d="M340.901 245.813c-1.299-4.179-35.322-45.23-43.709-58.75-5.789-9.341-13.586-8.85-14.885-8.727l-30.006-.246-23.036 6.023c.59 7.252-4.607 13.766-11.577 14.38h-2.009c-1.299.738-2.599 1.106-4.016 1.352 0 7.866-5.434 14.626-12.877 16.101-2.008.369-4.016.123-6.025-.368v.123c-1.417 1.229-3.071 2.089-4.725 2.704-2.481.86-5.08 1.229-7.679.86l-.118.246 3.426 1.475 12.05 10.324 2.835 8.727.473 2.089-18.902 97.713h99.587l7.915-101.031-1.063-14.75 38.275 44.739 16.066-22.984z" fill="#0F2333"/><path d="M265.414 177.722v.123l-.237.491c-.236.369-.354.983-.827 1.721-1.063 1.966-2.244 3.933-3.544 5.777-2.008 2.704-4.252 5.162-6.733 7.251-6.143 5.285-13.822 8.481-21.737 9.219-1.772.122-3.426.245-5.198.122-1.535-.122-2.953-.245-4.489-.491-2.126-.369-4.253-.861-6.379-1.598-.709-.246-1.3-.492-1.654-.615l-.472-.122-.119-.123h.119l.472.123c.354.122.945.368 1.654.614a29.894 29.894 0 006.379 1.475c1.536.246 2.954.369 4.489.369 1.772.123 3.426 0 5.198-.123 7.915-.738 15.476-3.933 21.619-9.095 4.252-3.565 7.678-7.867 10.277-12.906.355-.737.591-1.229.827-1.598l.237-.491c.118 0 .118-.123.118-.123zm21.855 65.756l-.119.123-.59.492c-.237.245-.473.491-.827.737l-1.3.983c-2.835 1.967-5.906 3.319-9.214 4.056-4.844 1.106-9.805 1.352-14.767.615-6.025-.983-11.931-2.458-17.602-4.425-5.67-2.089-11.577-3.687-17.484-4.793a49.464 49.464 0 00-14.766-.369c-3.308.492-6.498 1.598-9.451 3.196l-1.418.737c-.354.246-.709.492-.945.615l-.591.368-.236.123s.118-.123.236-.123l.591-.491.945-.738 1.418-.86c2.953-1.598 6.143-2.704 9.451-3.196 4.961-.737 9.923-.614 14.766.246a149.57 149.57 0 0117.602 4.793c5.671 1.967 11.577 3.565 17.602 4.425 4.844.738 9.805.492 14.649-.491 3.308-.738 6.379-2.09 9.214-3.934l1.3-.983c.354-.246.59-.491.945-.737.354-.246.354-.369.591-.492v.123zm-8.978 34.783l-.118.123-.591.492c-.236.246-.473.492-.827.737l-1.299.984c-2.836 1.966-5.907 3.318-9.215 4.056-4.843 1.106-9.805 1.352-14.767.614-6.025-.983-11.931-2.458-17.602-4.424-5.67-2.09-11.577-3.688-17.483-4.917a49.538 49.538 0 00-14.767-.369c-3.308.492-6.498 1.598-9.451 3.196l-1.418.738c-.354.245-.708.491-.945.614l-.59.369-.237.123s.119-.123.237-.123l.59-.492.945-.614 1.418-.861c2.953-1.598 6.143-2.704 9.451-3.195 4.961-.738 9.923-.615 14.767.245a149.612 149.612 0 0117.601 4.794c5.671 1.966 11.578 3.564 17.602 4.425 4.844.737 9.806.491 14.649-.492 3.308-.737 6.379-2.089 9.215-3.933l1.299-.983c.354-.246.591-.615.945-.738s.354-.369.591-.491v.122zm1.889 43.879c-.118 0-.118-.123-.236-.123l-.591-.368c-.236-.123-.59-.369-1.063-.615l-1.418-.737c-3.189-1.352-6.497-2.459-9.923-2.95-5.08-.861-10.159-1.106-15.239-.861-5.789.246-12.05.861-18.783 1.107-11.459.368-22.8-1.352-33.669-5.04a66.145 66.145 0 01-9.568-4.056 57.33 57.33 0 01-2.481-1.229l-.591-.368c-.118 0-.118-.123-.236-.123.118 0 .118 0 .236.123l.709.368c.591.246 1.418.738 2.599 1.229 3.189 1.475 6.379 2.827 9.569 3.933 10.868 3.688 22.209 5.408 33.55 5.04 6.615-.246 12.994-.861 18.783-1.106 5.08-.246 10.278 0 15.357.86 3.426.614 6.734 1.598 9.924 3.073.945.614 2.008 1.106 3.071 1.843z" fill="#89C142"/><path d="M316.448 213.734c-.118 0-.118.123-.237.123l-.826.246c-.355.123-.827.245-1.3.491-.472.246-1.063.369-1.654.738-.59.368-1.299.614-1.89.983s-1.418.737-2.126 1.229c-3.19 2.09-6.025 4.671-8.506 7.62-.591.738-1.063 1.352-1.536 2.09-.472.737-.827 1.229-1.181 1.844-.355.614-.591 1.106-.945 1.597-.355.492-.473.861-.591 1.229l-.354.738c0 .123-.118.246-.118.246 0-.123 0-.246.118-.246l.354-.86c.118-.369.355-.861.591-1.23.236-.491.472-1.106.827-1.597.354-.492.709-1.229 1.181-1.844.473-.615.945-1.352 1.536-2.089 2.362-3.073 5.316-5.654 8.505-7.744.709-.491 1.418-.86 2.127-1.229.709-.369 1.418-.737 2.008-.983.591-.246 1.182-.492 1.654-.615.473-.123.945-.368 1.3-.368l.826-.246.237-.123zm15.711 19.912c0 .122 0 .245-.118.245l-.354.738c-.236.369-.354.86-.591 1.229-.236.369-.472.983-.827 1.598l-1.063 1.843c-.354.615-.945 1.352-1.417 1.967a36.414 36.414 0 01-7.915 7.62c-.709.492-1.418.861-2.009 1.229-.59.369-1.299.738-1.772.984-.472.245-1.063.491-1.535.737a7.956 7.956 0 01-1.182.492l-.827.246c-.118 0-.118.122-.236.122.118 0 .118-.122.236-.122l.709-.369 1.181-.492c.473-.246.945-.491 1.536-.737.591-.246 1.181-.615 1.772-.984.591-.368 1.3-.86 2.008-1.352a38.879 38.879 0 007.915-7.497c.473-.737.945-1.352 1.418-1.967.473-.614.827-1.229 1.181-1.72.355-.492.591-1.106.827-1.475.237-.369.473-.861.591-1.229l.354-.738c.118-.246.118-.246.118-.368z" fill="#F9FAFB"/><path d="M191.462 144.045c-4.489-12.537.945-26.549 12.641-32.203l1.181-.614c12.759-5.408 24.336 2.95 29.179 16.47l21.264 53.096c.355.861.237 1.967-.354 2.704l-21.855 27.409-11.459-27.777s-12.877 3.933-18.665-8.481c-2.953-6.146-7.797-18.928-11.932-30.604z" fill="#A76E64"/><path d="M221.823 183.007c5.552-2.704 10.277-7.006 13.585-12.537 0 0 .354 10.816-12.168 15.487l-1.417-2.95z" fill="#8B534A"/><path d="M236.707 137.776c.118-.123 7.088-6.637 10.632 2.09 3.544 8.726-5.552 10.57-5.67 10.324-.118-.246-4.962-12.414-4.962-12.414z" fill="#A76E64"/><path d="M242.259 146.257h.473c.354 0 .827-.123 1.063-.492.709-.737.945-2.581.237-4.056-.237-.737-.709-1.475-1.3-1.966a1.508 1.508 0 00-1.536-.615c-.354 0-.709.369-.709.738 0 .246.119.491.119.491s-.237 0-.355-.491c0-.246 0-.492.118-.738s.473-.491.709-.614c.709-.123 1.536.123 2.127.614.708.615 1.181 1.352 1.535 2.213.709 1.72.473 3.81-.59 4.67-.355.369-.945.492-1.418.369-.473 0-.591-.123-.473-.123z" fill="#8B534A"/><path d="M238.597 130.524c-1.063-5.039-1.89-10.201-4.489-14.626 0 0-3.426-4.793-8.151-6.391-5.907-1.967-15.357-3.565-24.69 1.229-12.168 6.391-13.94 16.224-11.577 22.246 1.063 2.827.236-13.52 12.877-7.005 2.362-7.375 5.552-9.833 12.404-10.939 1.299-.246 2.717-.123 4.016.246 2.008.491 3.544 2.212 3.899 4.424 2.835 10.202 10.395 11.922 10.395 11.922l2.717 6.76c.591 2.09 2.363 3.442 3.19 3.319l.473-6.023c.118.123-.591-2.581-1.064-5.162z" fill="#263238"/><path d="M224.776 145.519c.119 0 .237-.245.119-.368 0-.123-.119-.123-.237-.123s-.237.123-.118.246c0 .245.118.245.236.245zm-3.78.861c.118 0 .236-.123.236-.246s-.118-.369-.354-.369c-.119 0-.237.123-.237.369v.123c0 .123.118.246.355.123-.118 0-.118 0 0 0zm-2.481 1.106c.119 0 .119-.246.119-.492 0-.245-.237-.368-.355-.245-.119.123-.119.245-.119.491s.237.369.355.246zm5.67 1.228c.118 0 .236-.122.118-.245-.118-.122-.118-.122-.236 0-.118.123-.236.123-.118.245.118.123.118 0 .236 0zm-3.662.739c.118 0 .236-.123.236-.369s-.118-.246-.354-.246c-.118 0-.237.123-.237.369.119.246.237.246.355.246zm-17.72 6.145c.119 0 .237-.246.119-.369 0-.123-.119-.246-.237-.123s-.237.123-.118.246c0 .246.118.369.236.246zm-2.48.983c.118-.123.118-.246.118-.369s-.237-.245-.355-.245-.118.245-.118.368c.118.246.236.369.355.246zm4.606-1.967c.118 0 .118-.123.118-.245 0-.123-.118-.123-.236-.123s-.118.123-.118.245c0 .123.118.246.236.123zm-.591 3.442c.118 0 .237-.123.237-.246s-.119-.245-.237-.368c-.118 0-.236.123-.354.245.118.246.118.369.354.369zm-2.244.614c.118-.123 0-.245 0-.245-.118-.123-.236 0-.236 0v.245h.236z" fill="#8B534A"/><path d="M113.375 205.991c-5.906-2.704-12.286-5.285-18.665-5.04l.118-.122c1.3-.861 2.363-1.844 3.19-3.196s.945-2.95.236-4.302c-.709-1.352-2.363-1.844-3.662-1.106 1.063-.738 1.654-1.967 1.89-3.319.118-1.352-.354-2.581-1.418-3.441-1.063-.86-2.48-.738-3.543.123.826-2.335.118-4.917-1.89-6.391-2.009-1.352-4.372-1.721-6.734-1.23-1.064.123-2.009.492-2.954 1.23-.826.737-1.181 1.843-.827 2.949-2.126-3.564-6.497-4.67-9.923-2.458-2.48 1.598-3.78 4.548-3.308 7.498-1.18-.246-2.362.368-3.071 1.475-2.48 3.318-2.008 8.234 1.3 10.816.354.245.708.491 1.18.737-1.653 1.598-1.771 4.302-.354 6.023 1.536 1.597 3.899 2.212 6.025 1.597-.709 1.844.118 4.056 2.008 4.794 1.064.491 2.245.369 3.19-.246l.118-.123c-1.417 2.581-2.362 5.408-2.953 8.235a46.324 46.324 0 000 12.783c.118 1.597.354 3.195.945 4.793.945 2.458 3.898 8.235 5.67 10.079l41.229-31.711c-.118-3.319-5.552-9.464-7.797-10.447z" fill="#263238"/><path d="M134.994 309.48l-5.67-7.866-17.13 10.202c.473.614 13.468 20.525 18.193 20.157 4.725-.369 42.292-25.074 42.292-25.074l1.418-15.609-39.103 18.19zm-12.64-80.136c.945-7.621-5.435-16.716-12.759-17.331H85.378l-.71 4.056-7.796 50.393s-.827 12.537 12.404 14.258c11.932 1.475 13.585-7.621 13.585-7.621l1.654-10.201c6.261-.123 11.814-4.425 13.822-10.693 1.89-6.146 3.072-14.381 4.017-22.861z" fill="#BB847A"/><path d="M104.397 263.021c-5.67-.984-10.987-3.688-15.357-7.744 0 0 2.598 9.587 14.884 10.816l.473-3.072z" fill="#8B534A"/><path d="M121.645 222.952s-1.89-6.391-4.962-4.916c-3.071 1.475-6.379 2.212-8.151.738-2.953-2.459-6.734-3.688-10.396-3.196-5.08.737-7.56 5.162-8.624 12.291-1.535 10.57-9.805 21.263-9.805 21.263s-4.843-4.302-3.78-10.693l.354-13.766s4.608-15.241 5.553-16.838c.945-1.598 12.286-3.933 12.286-3.933s15.711-.861 20.673 2.704c7.797 5.53 6.852 16.346 6.852 16.346z" fill="#263238"/><path d="M88.685 231.925c-.118-.123-6.38-4.794-8.505 2.581-2.127 7.374 5.316 8.235 5.434 7.989.118-.246 3.071-10.57 3.071-10.57z" fill="#BB847A"/><path d="M84.314 239.054s-.118 0-.354.122c-.354 0-.709-.122-.945-.245-.709-.861-.945-2.213-.59-3.319.118-.614.472-1.229.944-1.721.237-.368.71-.614 1.182-.737.354 0 .59.246.59.614v.369s.237-.123.237-.369c0-.245 0-.368-.118-.491a.647.647 0 00-.591-.369c-.59-.123-1.3.246-1.654.738-.472.491-.827 1.229-1.063 1.966a3.736 3.736 0 00.827 3.81c.354.246.827.246 1.181.123.236-.246.355-.369.355-.491zm11.341-.616c-.118 0-.118 0-.236-.123 0-.122-.118-.245 0-.245s.118 0 .236.123c.118 0 .118.122 0 .245zm2.718.615c-.119 0-.119-.246 0-.369.118-.123.118-.368.236-.368.119 0 .119.245 0 .368a1.776 1.776 0 00-.236.369zm2.48-.123s-.118-.123 0-.246c.118-.122.118-.245.236-.122.119.122.119.122 0 .245-.118.123-.118.123-.236.123zm-4.016 2.582c-.118 0-.237-.123-.237-.246v-.369s.119 0 .237.246.118.246 0 .369zm2.363-.37c-.119 0-.119-.123 0-.245.117-.123.117-.123.236-.123.118 0 .118.123 0 .245-.119.123-.237.246-.237.123zm15.121.861c-.119 0-.119-.123-.237-.245-.118-.123-.118-.246-.118-.369s.236 0 .355.246c.118.245 0 .368 0 .368zm1.771.246s0-.246.119-.369c.118-.123.236-.245.355-.245.118 0 0 .245-.119.368-.118.123-.355.369-.355.246zm1.655.737v-.368c0-.246.236-.246.236-.123v.369c0 .122-.118.122-.236.122zm-3.427 2.089s-.118 0-.236-.122c-.118-.123 0-.246 0-.246s.118 0 .236.123 0 .123 0 .245zm1.773-.246c-.118 0-.118-.123-.118-.245 0-.123.118-.123.236-.123v.245c0 .123 0 .123-.118.123zm-4.725-3.564c-.118 0-.118 0-.118-.122 0-.123 0-.123.118-.123s.118 0 .118.123c0 0 0 .122-.118.122zm-8.388-.86c-.118 0-.118-.123 0-.246s.118-.245.237-.245c.118 0 .118.122 0 .245-.119.123-.119.246-.237.246z" fill="#8B534A"/><path d="M78 273.456l-24.518 65.523h47.467l5.395-34.281 5.001 9.968L131.45 300.2s-16.672-33.308-19.614-35.861c-1.864-1.702-8.827-5.592-16.77-5.227-7.356.364-14.025 5.956-17.066 14.344z" fill="#0F2333"/><path d="M99.554 312.185h-.473l-1.418-.123-5.316-.369c-4.489-.246-10.632-.615-17.483-.86-6.852-.246-12.995-.369-17.484-.369h-7.206 7.206c4.489 0 10.632 0 17.484.246 6.851.246 12.994.614 17.483.86 2.245.123 4.017.369 5.316.369l1.418.123c.236.123.354.123.473.123z" fill="#F9FAFB"/><path d="M127.315 292.642c0 .123-5.08 3.933-11.577 8.726-6.379 4.794-11.695 8.604-11.695 8.481 0-.123 5.079-3.933 11.577-8.726 6.497-4.671 11.695-8.481 11.695-8.481zm-18.547-27.04c0 .123-1.299-.123-3.308 0l-.827.123-.827.122a54.1 54.1 0 01-1.89.369 23.82 23.82 0 00-4.135 1.475c-2.48 1.106-4.725 2.581-6.851 4.302-.355.369-.709.614-1.063.983-.237.246-.591.492-.827.738-.237.245-.473.368-.71.614.237-.246.355-.491.591-.737l.71-.738c.354-.246.59-.614 1.063-.983 3.19-2.827 6.97-4.916 10.986-5.9a54.692 54.692 0 001.89-.368l.827-.123h2.245c.354 0 .708 0 1.063.123h1.063zm-19.374 12.782c0 .123-5.552-.122-12.522-.368-6.97-.246-12.522-.615-12.522-.738s5.67.123 12.522.369 12.522.615 12.522.737z" fill="#89C142"/><path d="M96.01 260.931c-.591.123-1.3.369-1.89.615a9.185 9.185 0 00-3.899 3.564c-1.418 2.336-2.008 5.04-1.772 7.744a33.664 33.664 0 002.48 9.587c2.6 6.514 5.199 12.29 7.207 16.469l2.363 4.917.59 1.352c.118.123.118.246.237.491-.119-.123-.237-.245-.237-.491l-.708-1.229c-.591-1.107-1.418-2.827-2.481-4.917-2.009-4.179-4.726-9.955-7.206-16.47a33.649 33.649 0 01-2.481-9.586c-.236-2.704.472-5.531 1.89-7.867A9.185 9.185 0 0194 261.546c.237-.123.473-.246.827-.246.236-.123.355-.123.59-.123.237-.246.355-.246.592-.246z" fill="#263238"/><path d="M113.848 312.922l49.026-11.799 32.841-69.813s15.594 9.341 13.704 24.09c-.946 7.744-8.152 31.342-14.649 51.253-5.08 15.733-18.902 26.549-34.731 27.286l-53.751.123 7.56-21.14z" fill="#0F2333"/><path d="M183.311 324.23s-.355.491-1.064 1.229c-1.063 1.106-2.362 2.089-3.662 2.95-2.126 1.352-4.253 2.335-6.615 3.195-3.072 1.106-6.261 1.721-9.451 1.967-7.088.614-15.712.86-25.162.983-9.451.123-19.965-.123-31.07-.492h-.236l.118-.245 1.063-3.073 6.498-17.945v-.123h.118l24.808-6.145 10.632-2.581c3.308-.738 6.379-1.598 9.096-2.213 2.481-.614 5.08-.86 7.561-.983 1.89-.123 3.898.123 5.789.615l1.063.368.945.369c.59.246.945.492 1.417.737.473.246.591.369.827.492.118 0 .237.123.237.123l-.237-.123-.827-.492c-.354-.122-.827-.491-1.417-.614l-.945-.369-1.063-.369c-1.891-.491-3.781-.737-5.671-.614-2.599.123-5.08.492-7.561 1.106-2.835.615-5.788 1.475-9.096 2.212l-10.632 2.582-24.808 6.145.118-.123-6.497 18.068-1.063 3.072-.119-.245c10.987.368 21.501.491 30.952.491 9.45 0 18.074-.246 25.162-.86 3.19-.246 6.379-.86 9.451-1.967 2.244-.86 4.489-1.843 6.615-3.195 1.3-.861 2.599-1.721 3.662-2.827l.827-.861.237-.245z" fill="#263238"/><path d="M181.657 255.892c0 .123-.119.369-.237.491l-.59 1.352c-.473 1.107-1.3 2.827-2.127 4.794-1.772 4.056-4.135 9.833-6.615 16.101-2.481 6.268-4.844 12.045-6.498 16.224a75.26 75.26 0 01-2.126 4.916c-.236.615-.473.984-.591 1.352-.118.123-.118.246-.236.492 0-.123.118-.369.118-.492l.591-1.352 2.008-4.916 6.379-16.347c2.481-6.391 4.844-12.045 6.734-16.101.945-2.089 1.654-3.687 2.244-4.793l.591-1.23c.118-.122.236-.368.355-.491z" fill="#263238"/><path d="M190.872 256.015c.472-.246 1.063-.492 1.535-.614 1.182-.492 2.363-1.23 3.544-1.967a16.556 16.556 0 003.19-2.581l1.181-1.229c-.354.491-.709.983-1.063 1.352-.945.983-2.008 1.966-3.19 2.704-1.181.737-2.362 1.352-3.662 1.843-.472.246-.945.369-1.535.492z" fill="#89C142"/><path d="M202.094 249.009c0 .123-.473.492-1.182.983-.354.369-.826.492-1.417.615a8.315 8.315 0 012.599-1.598z" fill="#89C142"/><path d="M201.503 248.395s-.236.491-.708 1.106c-.473.614-.709.983-.827.983-.119 0 .118-.615.59-1.106.473-.492.827-1.106.945-.983z" fill="#89C142"/><path d="M200.558 248.026c0 .369-.118.86-.236 1.229-.118.492-.236.86-.591 1.229 0-.492.119-.86.237-1.352.236-.615.472-1.229.59-1.106zm-1.181 0c.119 0 .237.492.237 1.106.118.369.118.86 0 1.229-.118-.369-.237-.737-.237-1.106-.118-.737 0-1.229 0-1.229zm-3.308 1.598c.118.246.236.491.236.737.118 1.352-.236 2.704-1.181 3.565-.355.368-.591.491-.591.491.591-.614.945-1.475 1.299-2.212.119-.738.237-1.598.237-2.581z" fill="#89C142"/><path d="M196.778 248.394c.118 0 0 .492-.236 1.107-.237.614-.591.983-.591.983 0-.369.118-.738.354-1.106.237-.615.355-1.106.473-.984z" fill="#89C142"/><path d="M195.833 248.026c.118 0 .355.492.355 1.106 0 .615-.237 1.106-.237 1.106v-1.106c-.118-.614-.118-.983-.118-1.106z" fill="#89C142"/><path d="M194.77 248.394c.118-.122.354.246.709.615.354.369.59.737.472.86s-.354-.245-.709-.614c-.354-.369-.59-.738-.472-.861z" fill="#89C142"/><path d="M194.652 249.746c0-.122.354-.122.827 0 .472.123.826.246.826.246s-.354.123-.826 0c-.473-.123-.827-.123-.827-.246zm5.198 4.548l-2.481-.369-2.481.369c1.654-.86 3.426-.86 4.962 0z" fill="#89C142"/><path d="M201.503 252.942c0 .123-.354.492-.945.737-.591.246-1.181.492-1.181.369s.472-.369 1.063-.614c.591-.246 1.063-.615 1.063-.492zm.237 1.721c0 .123-.473 0-1.063-.123-.591-.123-1.063-.246-1.063-.369s.472-.123 1.181 0c.236.123.591.246.945.492zm-1.182 1.598c-.118 0-.236-.369-.591-.861-.354-.491-.59-.86-.472-.86s.472.246.827.737c.354.492.354.861.236.984zm-1.535-.246c-.119 0 0-.369.118-.861.118-.491-.118-.86 0-.86s.355.369.355.86c0 .492-.355.984-.473.861zm-35.795 19.788c-.354-.368-.709-.86-1.063-1.352-.827-1.106-1.89-2.089-2.953-2.949-1.064-.861-2.245-1.721-3.426-2.336-.945-.491-1.536-.737-1.536-.86.591.123 1.063.369 1.536.614 1.181.615 2.362 1.352 3.426 2.336 1.063.86 2.008 1.966 2.835 3.072.591.492.945.984 1.181 1.475z" fill="#89C142"/><path d="M153.423 266.954c0-.123.59.368 1.181.86l1.063 1.106c-.945-.491-1.772-1.229-2.244-1.966z" fill="#89C142"/><path d="M153.068 267.814c.355 0 .827.123 1.182.369.59.245 1.181.491 1.063.491-.118 0-.591 0-1.182-.245-.59-.246-1.181-.615-1.063-.615zm-.118.983c.355-.123.827-.245 1.3-.123.472 0 .827 0 1.299.123-.354.123-.827.246-1.299.123-.473.123-.945.123-1.3-.123zm.355 1.107c0-.123.354-.369.945-.615.354-.246.709-.246 1.063-.246a2.56 2.56 0 01-.945.615c-.473.123-1.063.368-1.063.246zm2.599 2.827c.118-.246.354-.369.59-.492 1.182-.615 2.481-.615 3.662 0 .473.246.591.492.591.492a5.574 5.574 0 00-4.843 0z" fill="#89C142"/><path d="M154.486 272.362c0-.123.473-.246 1.063-.123.355 0 .709.123 1.063.245h-1.063c-.59 0-1.063 0-1.063-.122zm0 .983s.354-.492.827-.614c.473-.123 1.063-.123 1.063-.123s-.472.123-.945.368c-.472.246-.945.492-.945.369z" fill="#89C142"/><path d="M155.195 274.328c-.118 0 .118-.491.354-.983.237-.492.591-.86.591-.737 0 .122-.118.491-.354.983-.237.491-.591.86-.591.737zm1.181-.245c-.118 0-.236-.369-.236-.861v-.86s.236.369.236.86c0 .492.119.861 0 .861zm2.6-6.637c.118.86.236 1.72.472 2.581.355.737.709 1.597 1.182 2.335-1.418-1.229-2.009-3.073-1.654-4.916zm-1.891-1.107c0-.123.473.246.945.738.473.491.709.983.709 1.106 0 .123-.473-.369-.945-.738-.473-.368-.709-1.106-.709-1.106zm1.536-.86c.118 0 .118.491.236 1.106.119.369.119.86 0 1.229-.118 0-.236-.492-.355-1.106 0-.369 0-.738.119-1.229z" fill="#89C142"/><path d="M160.393 266.216s-.237.369-.591.861c-.354.491-.591.86-.709.737s0-.492.355-.983c.354-.492.945-.738.945-.615zm.354 1.598c0 .123-.355.123-.827.246-.473.123-.827.369-.827.246s.236-.492.709-.615c.472-.123.945 0 .945.123zm-34.849 57.645c.354-.492.709-.861 1.181-1.352.945-.984 1.772-2.213 2.481-3.319.709-1.229 1.3-2.458 1.772-3.81.118-.615.355-1.106.591-1.598-.118.615-.236 1.229-.473 1.721-.827 2.704-2.362 5.162-4.253 7.252-.354.368-.827.737-1.299 1.106z" fill="#89C142"/><path d="M133.222 314.151c-.118.492-.355.983-.709 1.352-.236.492-.591.861-.945 1.229.118-.491.354-.983.709-1.352.236-.491.59-.86.945-1.229z" fill="#89C142"/><path d="M132.395 313.905c.118 0 0 .615-.236 1.229-.236.615-.236 1.229-.355 1.229-.118-.369-.118-.86.119-1.229 0-.492.118-.983.472-1.229z" fill="#89C142"/><path d="M131.332 313.905c.355.86.355 1.721.355 2.581-.355-.737-.473-1.721-.355-2.581zm-.945.492c.118 0 .354.368.708.983.355.615.473 1.106.355 1.106s-.355-.369-.709-.983c-.354-.615-.473-.983-.354-1.106zm-2.481 3.072c.236.123.354.369.59.615.709 1.106.827 2.458.473 3.81-.118.492-.355.738-.355.738.473-1.844.355-3.688-.708-5.163z" fill="#89C142"/><path d="M128.142 315.872c.237.368.355.737.237 1.106 0 .614-.118 1.106-.118 1.106s-.119-.492-.119-1.106c0-.615-.118-1.106 0-1.106zm-.945.122c0-.122.472.246.709.861.236.369.236.737.236 1.106-.118 0-.236-.492-.473-.983-.236-.492-.59-.861-.472-.984z" fill="#89C142"/><path d="M126.252 316.855c0-.123.472 0 .945.246s.827.491.827.614-.473 0-.945-.246c-.473-.245-.827-.491-.827-.614z" fill="#89C142"/><path d="M126.724 318.084c0-.123.355-.246.709-.369s.827-.123.827-.123-.355.246-.709.369-.827.246-.827.123zm6.617 1.844c-.827.245-1.654.491-2.363.737a7.75 7.75 0 00-2.008 1.475 4.783 4.783 0 014.371-2.212z" fill="#89C142"/><path d="M134.285 317.961c.118 0-.118.615-.591 1.106-.472.492-.827.861-.945.861s.237-.492.591-.984c.354-.491.827-1.106.945-.983zm.827 1.475c0 .123-.472.246-1.063.369s-1.063.246-1.181.246c-.118 0 .472-.369 1.063-.492s1.181-.246 1.181-.123zm-.354 1.967c-.118 0-.354-.246-.945-.492s-.827-.492-.827-.615.473 0 .945.369c.473.369.827.615.827.738zm-1.536.491c-.118 0-.118-.368-.354-.86-.237-.492-.473-.738-.355-.86.118-.123.473.122.591.737s.236.983.118.983z" fill="#89C142"/><path d="M56.199 284.284c-2.008 1.598-2.835 4.302-2.245 6.883.945 4.425 6.734 18.191 6.734 18.191s5.789 7.989 7.915 8.603a76.2 76.2 0 007.442.738s.591-1.352-1.18-1.721c-1.773-.369-4.963-2.95-4.963-2.95l-4.134-5.654s6.025 5.162 8.033 5.777c2.008.615 9.687.983 9.687.983l3.071-6.145-1.772-3.933-4.725-2.581-7.206-7.744v-2.949l5.316 3.933s4.253 3.072 6.852.737l-4.608-3.933s-6.379-7.375-8.033-8.235c-2.599-.983-5.316-1.721-8.033-2.458l-8.151 2.458z" fill="#FABC9D"/><path d="M84.67 312.184c-.237.123-.473.123-.71.123-.236 0-.59.123-.826.123h-1.182c-.945 0-2.008-.123-2.953-.369-2.363-.491-4.607-1.598-6.616-3.072-.827-.615-1.535-1.23-2.244-2.09-.236-.246-.473-.614-.709-.86s-.354-.492-.473-.738c-.118-.246-.236-.368-.354-.614 0 0 .59.86 1.772 2.089a17.455 17.455 0 002.245 1.967c.945.737 2.008 1.352 3.071 1.843 1.063.492 2.245.861 3.426 1.107a12.19 12.19 0 002.953.368c1.536.246 2.6 0 2.6.123zm.826-1.843c-.236 0-.473 0-.709-.123-.473-.123-1.181-.246-2.008-.492a18.253 18.253 0 01-6.143-2.581c-1.063-.737-1.89-1.598-2.717-2.581-.71-.86-1.3-1.721-1.89-2.458-.591-.738-1.064-1.229-1.3-1.598-.236-.123-.354-.369-.472-.614.236.122.354.245.59.491l1.418 1.475 1.89 2.335c.827.984 1.654 1.844 2.717 2.581 1.89 1.23 3.898 2.09 6.025 2.704l1.89.492.709.369z" fill="#EB986F"/><path d="M90.576 293.133c-.473-.368-1.064-.245-1.418.246-.118.123-.118.369-.118.492-.118.983-.118 1.966.118 2.95.472 2.212 4.135 4.67 4.135 4.67l5.434 5.777h-7.443l-4.37 5.654.944 4.056 5.789 14.134 13.231.984 6.615-18.437s-9.805-13.151-10.986-13.643c-1.181-.491-6.261-2.581-6.261-2.581l-5.67-4.302z" fill="#FABC9D"/><path d="M98.845 306.039c.118.246.118.614 0 .86-.236 1.475-1.063 2.704-2.362 3.319-.237.123-.591.246-.827.246a7.834 7.834 0 002.126-1.844c.473-.738.827-1.598 1.063-2.581z" fill="#EB986F"/><path d="M289.159 171.207c0-1.966 1.772-4.301 3.307-5.408 1.536-1.106 3.19-1.843 5.08-2.089 9.451-1.844 19.138 1.967 25.044 9.833 1.3 1.598 2.127 3.441 2.363 5.531.118 2.089-1.063 4.056-2.953 4.793 2.008 1.229 2.599 3.933 1.417 6.023-.472.737-1.063 1.352-1.772 1.72.945 2.704-.59 5.654-2.362 7.99-6.734 8.849-18.075 12.782-28.943 12.659-3.662 0-7.561-.614-10.632-2.827-4.371-3.195-6.025-9.095-6.852-14.626-.472 1.229-1.772 1.844-2.953 1.475-1.182-.492-1.89-1.598-2.009-2.95 0-1.229.355-2.581 1.182-3.564-.709.369-1.536.491-2.363.491s-1.536-.614-1.772-1.474c-.118-.861.236-1.721.945-2.213.591-.491 1.418-.86 2.127-1.352 2.48-1.843 2.599-5.531 3.78-8.481 2.363-6.145 9.096-9.218 15.003-6.76.709.246 1.536.738 2.363 1.229z" fill="#263238"/><path d="M318.102 185.957c-1.3-7.375-9.924-13.889-16.894-12.168l-22.563 7.497.59 4.056 7.088 49.41s3.781 15.732 16.657 13.274c11.578-2.335 9.451-14.995 9.451-14.995l-1.063-7.006s8.978-2.704 9.451-15.363c.236-6.392-1.3-16.47-2.717-24.705z" fill="#FABC9D"/><path d="M311.368 225.902c-5.671.737-11.341 0-16.539-2.458 0 0 5.08 8.112 16.893 5.408l-.354-2.95zm-13.94-21.633h-.236c-.118 0-.118-.122-.118-.245h.236c.118.123.236.245.118.245zm2.717-.122c-.118 0-.118-.123-.118-.369 0-.245 0-.368.118-.368.119 0 .119.123.119.368a.549.549 0 01-.119.369zm2.363-.983c-.118 0-.118-.123-.118-.246s0-.246.118-.246.118.123.118.246 0 .246-.118.246zm-3.071 3.687s-.237 0-.237-.123-.118-.246-.118-.368c0-.123.237-.001.237.122s.236.246.118.369zm2.126-.983c-.118 0-.118-.123-.118-.246s.118-.246.118-.246.118.123.118.246-.118.246-.118.246zm14.295-3.933c-.118 0-.237-.123-.237-.246-.118-.123-.236-.246-.118-.246s.237 0 .355.123 0 .369 0 .369zm1.771-.246c-.118 0-.118-.123 0-.369.119-.246.119-.369.237-.369s.118.123 0 .369a1.506 1.506 0 01-.237.369zm1.772 0c-.118 0-.118-.123 0-.369.119-.246.119-.246.237-.246s.118.123 0 .369-.237.369-.237.246zm-2.717 3.072s-.118 0-.236-.123c-.118-.122-.118-.245 0-.245s.118 0 .236.123c.118.122.118.122 0 .245zm1.654-.738c-.118 0-.118-.122-.118-.245 0-.122 0-.122.118-.122s.118.122.118.245 0 .122-.118.122zm-5.434-1.966h-.118c0-.122 0-.122.118-.122h.118c0 .122 0 .122-.118.122zm-8.033 1.844c-.119 0-.119-.123-.119-.246 0-.122 0-.245.119-.245.118 0 .118.123.118.245 0 .123-.118.246-.118.246z" fill="#EB986F"/><path d="M281.834 199.599c-.236 0-9.45-1.352-7.678 7.989 1.772 9.342 10.277 5.654 10.277 5.286 0-.369-2.599-13.275-2.599-13.275z" fill="#FABC9D"/><path d="M281.716 209.801l-.354.369c-.355.246-.827.369-1.181.246-1.064-.123-2.127-1.598-2.481-3.196a3.923 3.923 0 010-2.335c.118-.615.472-1.229.945-1.475.354-.123.827 0 .945.246.118.245.118.491.236.491s.118-.246 0-.614a.942.942 0 00-.472-.492c-.237-.123-.591-.123-.946-.123-.708.246-1.181.983-1.417 1.721-.236.86-.236 1.844-.118 2.704.354 1.844 1.654 3.441 2.953 3.564.473 0 1.063-.123 1.418-.491.59-.492.59-.615.472-.615z" fill="#EB986F"/><path d="M316.802 176.369c-1.89-2.335-4.607-3.81-7.56-4.056-2.954-.245-5.789 0-8.624.615l-24.218 5.777 2.009 20.28 2.599 2.95 2.126 1.72c2.363-1.229 4.489-4.793 4.135-8.849 2.481-.861 4.489-2.827 5.434-5.408a11.267 11.267 0 000-7.866 8.289 8.289 0 005.08 4.179c.827.245 1.772.245 2.599.122 2.126-.737 3.307-3.195 2.717-5.408-.118-.245-.237-.614-.355-.86 2.363 2.335 5.316 3.933 8.624 4.671 2.008.368 4.253.368 5.67-1.107 1.654-1.597 1.182-4.793-.236-6.76z" fill="#263238"/><path d="M319.569 233.285l-16.599-2.466c-5.886 5.426-13.221 3.453-21.327.123l-16.889 8.633 12.16 64.252-2.509 36.381 59.061-.37-5.501-81.641-8.396-24.912z" fill="#0F2333"/><path d="M267.068 237.824s-9.806 4.794-10.396 14.012c-.473 7.989 2.126 27.532 3.662 36.258 2.008 10.939 8.033 19.911 12.64 20.895 4.608.983 38.158-12.291 38.158-12.291l16.066-6.269-8.033-16.347s-32.487 10.816-33.787 9.956c-1.299-.86-18.31-46.214-18.31-46.214z" fill="#0F2333"/><path d="M295.774 304.564c-.473-.123-.354 12.66.354 15.978.709 3.319 52.334-8.358 57.295-13.889 4.962-5.53 2.954-14.011 2.954-14.011l-7.206-38.717c-2.363-9.955-5.671-17.576-14.413-19.911l-2.599-.737 2.009 26.056 2.244 31.588-40.638 13.643z" fill="#0F2333"/><path d="M343.855 295.469c-.355-.615-.827-1.106-1.3-1.598-1.417-1.229-3.189-1.844-4.961-1.967-1.3-.123-2.481 0-3.781.246-1.417.369-2.835.738-4.134 1.229l-9.451 3.196-17.248 5.654-5.198 1.72-1.417.492c-.118.123-.355.123-.473.123l.473-.246 1.417-.491 5.198-1.844 17.13-5.9 9.451-3.195c1.417-.492 2.835-.861 4.252-1.229 1.3-.246 2.481-.369 3.781-.246 1.89.123 3.662.86 5.079 2.089l1.064 1.106c.118.123.118.246.236.369s-.118.369-.118.492z" fill="#263238"/><path d="M334.522 273.96c.473-1.721-.945-4.056-1.772-3.319-.118.123 2.599-5.039-1.063-5.285-.236 0-.591 0-.827.123-1.063.369-2.126.86-3.071 1.598-.591.491-1.3.86-1.182-.492a6.448 6.448 0 00-1.536-5.039c-.472-.492-1.653.491-1.535 2.704.118 2.335-.473 4.547-1.772 6.391-.709 1.721-1.3 3.564-1.654 5.531l6.261 12.905s7.442-4.67 8.269-10.447c.355-3.318-.472-3.196-.118-4.67z" fill="#FABC9D"/><path d="M333.813 250.73v.368c0 .369 0 .738.118 1.23.119.983.237 2.581.355 4.301.236 3.688.709 8.604 1.181 14.135.473 5.531.945 10.57 1.181 14.257.119 1.844.237 3.319.237 4.302v1.229c0-.245 0-.737-.118-1.229a99.05 99.05 0 01-.355-4.302c-.236-3.687-.709-8.603-1.181-14.134-.473-5.531-.945-10.57-1.181-14.258-.119-1.843-.119-3.318-.237-4.301v-1.598z" fill="#263238"/><path d="M295.892 305.547l-5.079-1.352-6.852 2.336s3.426 2.949 1.89 3.072c-1.536.123-4.725-2.335-4.725-2.335l-3.308.983s1.417 5.777 3.426 7.375c.118 1.352.709 2.704 1.654 3.687 0 0 2.835 4.179 5.552 4.302 2.717.123 8.033-3.687 8.033-3.687l-.591-14.381z" fill="#FABC9D"/><path d="M326.371 290.675l-.118.123-.354.123-1.536.738c-1.3.614-3.19 1.352-5.552 2.335-4.608 1.966-11.105 4.547-18.311 7.129-7.206 2.581-13.822 4.67-18.665 6.145-2.363.738-4.371 1.229-5.671 1.598l-1.535.369-.355.122h-.118.118l.355-.122 1.535-.492 5.671-1.721c4.843-1.475 11.459-3.564 18.665-6.145 7.206-2.581 13.703-5.04 18.311-7.006l5.552-2.212 1.536-.615.354-.123.118-.246z" fill="#263238"/><path d="M315.148 249.255c-.118 0-.591-1.352-1.417-2.95-.827-1.598-1.536-2.827-1.536-2.95 1.536 1.844 2.481 3.81 2.953 5.9zm23.745-8.481c-.945.369-2.008.737-3.072.983-1.063.369-2.008.492-3.071.615.945-.492 2.008-.738 3.071-.984.946-.245 2.009-.491 3.072-.614zm-4.725 63.79c-.118 0 .354-1.598.709-3.441.354-1.967.472-3.442.59-3.442.119 2.335-.354 4.671-1.299 6.883zm-32.487 5.408c-.118.983-.236 1.844-.591 2.827-.236.983-.472 1.843-.827 2.704.119-.983.355-1.844.591-2.827.236-.86.473-1.844.827-2.704zm5.434-18.436c.354-2.581 1.536-4.917 3.19-6.883.118 0-.946 1.475-1.772 3.318-.827 1.844-1.418 3.565-1.418 3.565zm-43.473-27.778c-.118-.123 1.181-1.475 2.244-3.564 1.064-2.09 1.654-3.933 1.772-3.933 0 .368-.118.86-.236 1.229-.591 1.966-1.654 3.81-2.835 5.408-.355.369-.591.614-.945.86z" fill="#89C142"/><path d="M338.657 334.431h-1.418c-.827 0-2.126-.123-3.426-.123h-4.843c.473-.123.945-.246 1.418-.246 1.181-.123 2.244-.123 3.425-.123 1.182 0 2.245.123 3.426.246.473.123.945.123 1.418.246z" fill="#F9FAFB"/><path d="M319.165 274.083s-31.424 9.955-33.787 9.955c-.59-.983-6.024-14.257-6.024-14.257" stroke="#273339" stroke-width="1.229" stroke-miterlimit="10"/><g opacity=".4"><path opacity=".4" d="M140.782 88.49v62.929H62.814l-2.835-62.438 80.803-.491z" fill="#383535"/><path opacity=".4" d="M137.947 88.857H59.979v62.438h77.968V88.857z" fill="#383535"/><path opacity=".4" d="M138.302 151.665H59.625V88.612h78.559v63.053h.118zm-77.968-.615h77.377V89.227H60.215l.119 61.823z" fill="#818282"/><path opacity=".4" d="M129.56 95.373H68.485v47.811h61.075V95.373z" fill="#383535"/><path opacity=".4" d="M129.56 95.372h-17.011l-44.064.123.118-.123v47.812l-.118-.123h61.075l-.118.123V98.691v9.587c0 8.358 0 20.28.118 34.783v.123H68.131V95.126h.118l44.182.123h16.657l.472.123z" fill="#818282"/><path opacity=".4" d="M59.979 88.735c.472.246.945.492 1.3.86.826.492 1.89 1.352 3.07 2.213 1.182.86 2.245 1.72 2.954 2.458.473.368.827.614 1.181 1.106-.472-.246-.826-.615-1.3-.86l-2.952-2.336-3.072-2.458c-.472-.246-.827-.614-1.181-.983zm77.969.123c-1.3 1.23-2.718 2.336-4.135 3.319a56.537 56.537 0 01-4.371 3.073c1.299-1.23 2.717-2.336 4.135-3.319 1.417-1.106 2.953-2.09 4.371-3.073zm-8.743 54.326c1.536 1.229 3.072 2.581 4.489 4.056 1.536 1.352 2.954 2.704 4.253 4.179a69.761 69.761 0 01-4.489-3.933c-1.417-1.475-2.835-2.827-4.253-4.302zm-69.225 8.235c1.299-1.475 2.598-2.827 4.134-4.056 1.3-1.352 2.835-2.581 4.253-3.81-1.3 1.475-2.599 2.827-4.135 4.056-1.3 1.352-2.717 2.581-4.252 3.81z" fill="#818282"/><path opacity=".4" d="M113.73 118.725c-.826 4.179-4.725 6.76-8.741 5.9-4.017-.86-6.498-4.916-5.67-9.095.826-4.179 4.724-6.76 8.741-5.9 4.017.86 6.497 5.039 5.67 9.095z" fill="#595C5A"/><path opacity=".4" d="M104.043 124.502c.118-.737.354-1.475.59-2.089.591-1.598.827-3.442.709-5.163-.118-1.72-.945-3.318-2.126-4.547-.591-.492-1.181-.861-1.772-1.229 0-.123.945 0 2.008.86 1.418 1.229 2.245 2.95 2.481 4.794.118 1.843-.118 3.687-.827 5.408-.236.614-.591 1.352-1.063 1.966z" fill="#DFDFDF"/><path opacity=".4" d="M113.612 116.267c-1.418-.246-2.835-.123-4.253.123-1.299.492-2.599 1.352-3.662 2.335 0 0 .118-.491.709-1.106 1.536-1.598 3.78-2.335 6.025-1.844.827.123 1.181.369 1.181.492z" fill="#DFDFDF"/><path opacity=".4" d="M110.304 115.898c-.118 0 0-.491-.354-1.352-.591-1.843-2.481-2.827-4.135-2.212-.236.123-.354.123-.591.246-.709.368-.945.737-1.063.737s.118-.614.827-1.106c1.536-1.106 3.78-.737 4.844.86.236.369.472.861.59 1.352.118.492.118.984-.118 1.475z" fill="#DFDFDF"/><path opacity=".4" d="M107.942 116.636c-.119 0 0-1.106-.355-2.336-.354-1.229-.827-2.089-.709-2.212.118-.123.945.738 1.3 2.09.236.86.236 1.72-.236 2.458z" fill="#DFDFDF"/><path opacity=".4" d="M107.823 114.301c0 .123-.59.246-1.299.491-.709.246-1.181.738-1.299.615-.119-.123.236-.738.945-1.229.708-.492 1.772 0 1.653.123z" fill="#DFDFDF"/><path opacity=".4" d="M96.128 117.865c2.363 2.089 2.718 5.776.71 8.235-2.01 2.458-5.553 2.827-7.916.737-2.362-2.089-2.717-5.777-.709-8.235 2.009-2.458 5.553-2.827 7.915-.737z" fill="#595C5A"/><path opacity=".4" d="M96.365 126.591a5.717 5.717 0 01-1.181-1.229c-.828-.983-1.89-1.721-3.072-2.335-1.181-.492-2.48-.492-3.662-.123l-1.418.737c.237-.491.709-.86 1.3-1.106a5.66 5.66 0 014.016 0c1.182.615 2.363 1.475 3.19 2.581.236.492.59.984.827 1.475z" fill="#DFDFDF"/><path opacity=".4" d="M94.356 117.004c-.59.861-1.181 1.967-1.418 3.073-.118 1.106-.118 2.335.119 3.442-.237-.246-.355-.615-.473-.984-.472-1.72-.118-3.441.945-4.793.473-.492.827-.738.827-.738z" fill="#DFDFDF"/><path opacity=".4" d="M92.938 119.217c0 .123-.354-.123-.945-.246-1.418-.246-2.717.737-2.953 2.089v.492c0 .615.118.983.118.983s-.355-.368-.355-.983c-.118-1.475.827-2.827 2.363-3.073.355 0 .709 0 1.063.123.473.246.827.615.71.615z" fill="#DFDFDF"/><path opacity=".4" d="M92.702 121.183c-.118.123-.709-.368-1.654-.614s-1.654-.123-1.654-.246.828-.369 1.772-.123c.946.246 1.536.861 1.536.983z" fill="#DFDFDF"/><path opacity=".4" d="M91.049 120.323c.118.123-.118.492-.118 1.106 0 .615.118 1.106 0 1.106s-.355-.368-.473-1.106c-.118-.737.59-1.106.59-1.106z" fill="#DFDFDF"/><path opacity=".4" d="M96.364 115.898c-1.89-1.475-3.308-3.687-4.016-6.022-.827-2.336-.827-4.917-.118-7.252 2.126 1.106 3.898 2.95 4.725 5.285a12.315 12.315 0 01-.59 7.989z" fill="#595C5A"/><path opacity=".4" d="M94.002 106.434c.827 2.95 1.535 6.023 2.126 9.096l-2.126-9.096z" fill="#fff"/><path opacity=".4" d="M96.129 115.53c-.119-.492-.237-.861-.355-1.352-.236-.984-.472-1.967-.709-3.196-.236-1.229-.59-2.335-.708-3.196-.118-.491-.237-.86-.237-1.352.237.369.355.861.473 1.352.236.861.59 1.967.827 3.196.236 1.229.472 2.458.59 3.319.119.245.119.737.119 1.229z" fill="#DFDFDF"/><path opacity=".4" d="M101.326 126.346c2.363-.369 4.843.122 6.97 1.352 2.126 1.106 3.898 2.827 4.961 5.039-2.244.86-4.725.86-6.969-.246a10.94 10.94 0 01-4.962-6.145z" fill="#595C5A"/><path opacity=".4" d="M109.359 131.385a63.38 63.38 0 01-7.678-4.916l7.678 4.916z" fill="#fff"/><path opacity=".4" d="M101.681 126.469c.472.122.827.368 1.181.737l2.717 1.721 2.717 1.72 1.063.738c-.472-.123-.827-.369-1.181-.615-.709-.368-1.772-.983-2.835-1.597-1.063-.615-2.008-1.352-2.717-1.844-.237-.246-.591-.615-.945-.86z" fill="#DFDFDF"/><path opacity=".4" d="M99.081 127.452c.355 1.475.237 2.949-.354 4.424-.473 1.352-1.418 2.581-2.6 3.319-.59-1.352-.708-2.95-.235-4.302.59-1.475 1.772-2.704 3.19-3.441z" fill="#595C5A"/><path opacity=".4" d="M96.719 132.737c.709-1.721 1.417-3.442 2.362-5.039l-2.362 5.039z" fill="#fff"/><path opacity=".4" d="M99.081 127.698l-1.063 2.581c-.354.86-.709 1.72-1.181 2.458.236-.983.472-1.844.945-2.581.236-.984.709-1.721 1.3-2.458z" fill="#DFDFDF"/></g><path d="M252.239 432.39c-60-27.901-166.012-10.693-185.644-88.618L14.202 135.564c-1.595-6.391-4.662-13.029 5.277-15.855 62.33-18.068 98.404-54.203 128.711-101.646 3.926-6.269 6.994-7.13 13.374-3.565 49.203 27.532 98.16 42.65 161.595 28.638 8.467-1.844 9.448.983 10.798 6.391l53.62 213.248c19.632 78.047-82.332 113.199-121.841 166.419-5.399 7.375-5.399 7.006-13.497 3.196z" stroke="#0D2333" stroke-width="24.582" stroke-miterlimit="10"/><path opacity=".6" d="M249.785 419.115c-56.074-26.056-155.092-9.955-173.374-82.717L27.576 141.955c-1.472-5.9-4.294-12.168 4.908-14.749 58.16-16.839 91.902-50.639 120.123-94.886 3.681-5.777 6.503-6.637 12.515-3.319 45.89 25.689 91.657 39.823 150.921 26.672 7.975-1.721 8.834.86 10.061 6.022l50.061 199.236c18.282 72.885-76.81 105.702-113.742 155.358-5.031 6.76-5.031 6.391-12.638 2.826z" stroke="url(#paint0_linear)" stroke-width="1.844" stroke-miterlimit="10"/><defs><linearGradient id="paint0_linear" x1="25.058" y1="224.325" x2="379.462" y2="224.325" gradientUnits="userSpaceOnUse"><stop stop-color="#93D642"/><stop offset="1" stop-color="#56AB2F"/></linearGradient></defs></svg>